<?xml version="1.0" encoding="utf-8"?>
<!-- Generator: Adobe Illustrator 25.4.1, SVG Export Plug-In . SVG Version: 6.00 Build 0)  -->
<svg version="1.1" id="Layer_1" xmlns="http://www.w3.org/2000/svg" xmlns:xlink="http://www.w3.org/1999/xlink" x="0px" y="0px"
	 viewBox="0 0 480 206" style="enable-background:new 0 0 480 206;" xml:space="preserve">
<style type="text/css">
	.st0{display:none;}
	.st1{display:inline;stroke:#231F20;stroke-miterlimit:10;}
	.st2{enable-background:new    ;}
	.st3{fill:#FFFFFF;stroke:#FFFFFF;stroke-width:0.75;stroke-miterlimit:10;}
	.st4{opacity:0.4;}
	.st5{fill:url(#path32_00000158030219796530344060000006103818110317234111_);}
	.st6{fill:url(#path52_00000080917722524497184080000012229686029494124460_);}
	.st7{fill:url(#path72_00000036233370842338696510000007949135663426665362_);}
	.st8{fill:url(#path92_00000176753550428557475520000017987186047563263666_);}
	.st9{fill:url(#path112_00000176043525525201684760000001724026103241329045_);}
	.st10{fill:url(#path132_00000055671404141514027080000013799435073916901814_);}
	.st11{fill:url(#path152_00000073698314792111817020000015477169440188481434_);}
	.st12{fill:url(#path172_00000062193706775458796750000014067478384592607117_);}
	.st13{fill:url(#path192_00000139284539863730116690000003214029560149292175_);}
	.st14{fill:url(#path212_00000170247567095101736100000011225433406479944342_);}
	.st15{fill:url(#path232_00000099629341291740002900000005589677992965287596_);}
	.st16{fill:url(#path252_00000098183254706836884400000003263856359017064884_);}
	.st17{fill:url(#path272_00000024685210657698523680000018242628342914129554_);}
	.st18{fill:url(#path292_00000175319458648120605370000010938449006898825624_);}
	.st19{fill:url(#path312_00000117671555036032301170000017738575173938617275_);}
	.st20{fill:url(#path332_00000060009409279287525060000003829941650732645762_);}
	.st21{fill:url(#path352_00000146500507682222576660000006594629866104219533_);}
	.st22{fill:url(#path372_00000037673585776159778700000017866279501702775724_);}
	.st23{fill:url(#path392_00000031891309363840762940000006458276999974956186_);}
	.st24{display:inline;}
	.st25{fill:#FFFFFF;stroke:#231F20;stroke-miterlimit:10;}
</style>
<g id="back" class="st0">
	<rect y="-119" class="st1" width="500" height="500"/>
</g>
<g>
	<g id="Claym">
		<g id="claym">
			<g class="st2">
				<path class="st3" d="M109.9,78.4c18.6,0,28.8,11.7,28.8,18.7c0,4.6-2.5,7.4-7.3,7.4c-9.4,0-6.6-12.9-21.5-12.9
					c-10.2,0-18.6,8.9-18.6,24.4c0,13,5.1,24.4,19.2,24.4c12.8,0,12.5-13.7,20.3-13.7c4,0,7.9,2.3,7.9,6.3
					c0,10.3-12.5,20.6-28.2,20.6c-22.3,0-35.4-12.8-35.4-37.5C75.1,95.7,87,78.4,109.9,78.4z"/>
				<path class="st3" d="M148.8,86.9c0-4.9,3.2-8.2,8.1-8.2c4.9,0,8.1,3.3,8.1,8.2v51h27.1c4.6,0,8.4,2.4,8.4,6.9s-3.8,6.9-8.4,6.9
					h-33.8c-5.7,0-9.5-2.3-9.5-9.5L148.8,86.9L148.8,86.9z"/>
				<path class="st3" d="M225.1,83.7c1.4-3.7,4-5,7.9-5h3.9c3.7,0,6.9,0.9,8.7,6l19.6,54.8c0.6,1.6,1.6,4.5,1.6,6.3
					c0,4-3.5,7.2-7.6,7.2c-3.6,0-6.1-1.3-7.3-4.5l-4.2-11.9h-26.1l-4.3,11.9c-1.1,3.2-3.4,4.5-7.2,4.5c-4.5,0-7.5-2.8-7.5-7.2
					c0-1.8,1-4.7,1.6-6.3L225.1,83.7z M234.9,96.5h-0.2l-9.6,28.7h19L234.9,96.5z"/>
				<path class="st3" d="M286.1,123.7l-19.9-33.2c-0.8-1.3-1.4-2.8-1.4-4.3c0-5.6,5-7.5,8.2-7.5c3.9,0,5.6,1.6,7.3,4.8l14.1,26.2
					l14-26.2c1.9-3.6,3.7-4.8,7-4.8c3,0,8,1.9,8,7.5c0,1.5-0.6,3-1.4,4.3l-19.9,33.2v21.1c0,4.9-3.2,8.2-8.1,8.2s-8.1-3.3-8.1-8.2
					v-21.1H286.1L286.1,123.7z"/>
				<path class="st3" d="M331.7,86.8c0-6.6,4.5-8.1,8.8-8.1h4.7c5,0,7.4,2,9.1,7.5l14.1,46h0.2l13.9-46c1.7-5.5,4.1-7.5,9.1-7.5h4.5
					c4.4,0,8.8,1.5,8.8,8.1V145c0,4.1-2,8-7.2,8s-7.2-3.9-7.2-8v-44.4h-0.2l-15.1,47.5c-1.1,3.4-3.6,4.8-6.9,4.8
					c-3.4,0-5.8-1.4-6.9-4.8l-15.1-47.5h-0.2V145c0,4.1-2,8-7.2,8s-7.2-3.9-7.2-8L331.7,86.8L331.7,86.8z"/>
			</g>
		</g>
	</g>
	<g id="leul">
		<g class="st4">
			<g id="g14">
				<g id="g16">
					<g id="g22">
						<g id="g24">
							
								<radialGradient id="path32_00000030461003800579757910000009986357979489974933_" cx="-365.6533" cy="616.0706" r="0.9798" gradientTransform="matrix(-38.14 0 0 -38.14 -13726.5176 23621.9688)" gradientUnits="userSpaceOnUse">
								<stop  offset="0" style="stop-color:#FAEA27"/>
								<stop  offset="1" style="stop-color:#EB5D1E"/>
							</radialGradient>
							<path id="path32" style="fill:url(#path32_00000030461003800579757910000009986357979489974933_);" d="M156.7,71.2
								c3.7,1.9,8.2,2.3,12.2,3.2l0,0c-0.4,0.8-1.8,0.7-3.1,0.7l0,0c-0.5-0.1-1-0.1-1.4,0l0,0c3.9,1.9,7.2,4.9,9.5,8.6l0,0
								c1.5,1,2.2,2.8,3,4.3l0,0c0.5,1,1.4,2,1,2.9l0,0c-0.9-0.3-5.2-7.5-12.4-9.1l0,0c1,1.2,2,2.6,2.9,3.9l0,0
								c1.3,2.4,2.4,4.9,3.2,7.5l0,0c0.9,2.9,1.1,6.1,1.7,8.4l0,0c0.2,0.8,0.8,1.7,0.5,2.5l0,0c-0.7-0.3-1-1.2-1.3-1.9l0,0
								c-1.2-2.3-2.2-4.9-4.1-6.5l0,0c0,0.2,0.1,0.2,0.1,0.3l0,0c3.2,6.6,1.7,17.8-0.2,25l0,0c-0.3-0.2-0.3,0.7-0.6,0.9l0,0
								c0.3-5.9,2.1-11.8,1.5-17.3l0,0c-0.5-4.5-2.1-8.9-4.5-12.8l0,0c1.4-0.1,2.7,1.1,3.7,2.1l0,0c1.4,1.5,2.3,3.8,3.6,4.8l0,0
								c-1.4-6.9-5.2-13.1-10.6-17.6l0,0c-0.7-0.6-5.9-2.3-5.3-4.2l0,0c0.2,0.4,0.5,0.6,0.9,0.8l0,0c2.1,0.8,4.7,1,7,1.7l0,0
								c2.8,0.8,4.9,2.3,7,3.1l0,0c-1.8-3-5.4-5.1-7.4-7.4l0,0c-3.4-0.3-6.5-2-8.8-4.5l0,0c0.1-0.1,0.3-0.1,0.4-0.1l0,0
								C155.7,70.2,156.1,70.9,156.7,71.2"/>
						</g>
					</g>
				</g>
			</g>
			<g id="g34">
				<g id="g36">
					<g id="g42">
						<g id="g44">
							
								<radialGradient id="path52_00000081629834116452356020000015096773687096650141_" cx="-365.6532" cy="616.0706" r="0.9798" gradientTransform="matrix(-38.14 0 0 -38.14 -13726.3066 23621.6992)" gradientUnits="userSpaceOnUse">
								<stop  offset="0" style="stop-color:#FAEA27"/>
								<stop  offset="1" style="stop-color:#EB5D1E"/>
							</radialGradient>
							<path id="path52" style="fill:url(#path52_00000081629834116452356020000015096773687096650141_);" d="M195.2,77.1
								c0.2,0,2.6,0.7,3.6,1l0,0c0.6,0.2,1.1,0.4,1.7,0.6l0,0c0.1,0,0-0.3,0.2-0.3l0,0c0.7,0.2,1.4,0.7,2.1,0.9l0,0
								c2.1,0.6,4.7,1,6.2,2.6l0,0c0.5,0.1,1.2,0,1.2,0.5l0,0c-0.6,0.6-1.8,0.3-2.5,0.2l0,0c-2.2-0.3-4.6-1.4-6.7-2.2l0,0
								c-1-0.4-2.3-0.9-3.5-1.2l0,0c-1.9-0.5-3.9-1-5.6-1.4l0,0c-7.2-1.6-14.5-2.3-21.8-2.2l0,0c2.3-0.3,4.5-0.4,6.8-0.4l0,0
								C183.2,75.1,189.2,75.8,195.2,77.1"/>
						</g>
					</g>
				</g>
			</g>
			<g id="g54">
				<g id="g56">
					<g id="g62">
						<g id="g64">
							
								<radialGradient id="path72_00000034059545955655253260000013380587354959822244_" cx="-365.6627" cy="616.0751" r="0.9798" gradientTransform="matrix(-38.13 0 0 -38.13 -13724.6377 23618.0801)" gradientUnits="userSpaceOnUse">
								<stop  offset="0" style="stop-color:#FAEA27"/>
								<stop  offset="1" style="stop-color:#EB5D1E"/>
							</radialGradient>
							<path id="path72" style="fill:url(#path72_00000034059545955655253260000013380587354959822244_);" d="M227,84.6
								c0,0.2-0.3,0.2-0.3,0.4l0,0c-0.6-0.4-1.4-0.6-1.7-1.2l0,0h0.5l0,0C226.2,83.7,226.8,84,227,84.6"/>
						</g>
					</g>
				</g>
			</g>
			<g id="g74">
				<g id="g76">
					<g id="g82">
						<g id="g84">
							
								<radialGradient id="path92_00000001641197568893315590000005474137924924538276_" cx="-365.6615" cy="616.0685" r="0.9798" gradientTransform="matrix(-38.14 0 0 -38.14 -13723.4277 23618.0684)" gradientUnits="userSpaceOnUse">
								<stop  offset="0" style="stop-color:#FAEA27"/>
								<stop  offset="1" style="stop-color:#EB5D1E"/>
							</radialGradient>
							<path id="path92" style="fill:url(#path92_00000001641197568893315590000005474137924924538276_);" d="M214.9,83.9
								c-0.2,0-0.2,0.2-0.2,0.4l0,0c-0.7,0.1-1.4,0.2-2.1,0.1l0,0c-0.2-0.6-1-0.7-1.1-1.3l0,0c0.4-0.2,0.7-0.3,1.1-0.3l0,0
								C213.5,82.7,214.4,83.1,214.9,83.9"/>
						</g>
					</g>
				</g>
			</g>
			<g id="g94">
				<g id="g96">
					<g id="g102">
						<g id="g104">
							
								<radialGradient id="path112_00000110441540850229293040000013082368516852037765_" cx="-365.6527" cy="616.0646" r="0.9798" gradientTransform="matrix(-38.15 0 0 -38.15 -13726.4883 23623.457)" gradientUnits="userSpaceOnUse">
								<stop  offset="0" style="stop-color:#FAEA27"/>
								<stop  offset="1" style="stop-color:#EB5D1E"/>
							</radialGradient>
							<path id="path112" style="fill:url(#path112_00000110441540850229293040000013082368516852037765_);" d="M218.7,85.2
								c-0.4,1.3-1.9,0.8-3,0.7l0,0c-0.1-0.5,0.3-0.3,0.3-0.5l0,0c-0.2-0.3-0.8-0.3-0.6-0.9l0,0c0.3-0.2,0.6-0.4,1-0.4l0,0
								C217.2,84.2,218,84.6,218.7,85.2"/>
						</g>
					</g>
				</g>
			</g>
			<g id="g114">
				<g id="g116">
					<g id="g122">
						<g id="g124">
							
								<radialGradient id="path132_00000141435175208178525890000016069358411660896677_" cx="-365.6537" cy="616.066" r="0.9798" gradientTransform="matrix(-38.15 0 0 -38.15 -13728.4688 23625.957)" gradientUnits="userSpaceOnUse">
								<stop  offset="0" style="stop-color:#FAEA27"/>
								<stop  offset="1" style="stop-color:#EB5D1E"/>
							</radialGradient>
							<path id="path132" style="fill:url(#path132_00000141435175208178525890000016069358411660896677_);" d="M222,87.1
								c0,0.4-0.4,0.4-0.4,0.8l0,0c-0.5-0.5-1.2-0.2-1.4-0.9l0,0c0.2-0.2,0.4-0.3,0.6-0.3l0,0C221.2,86.7,221.6,86.8,222,87.1"/>
						</g>
					</g>
				</g>
			</g>
			<g id="g134">
				<g id="g136">
					<g id="g142">
						<g id="g144">
							
								<radialGradient id="path152_00000026142183452484683640000016488401460157889188_" cx="-365.6532" cy="616.0703" r="0.9798" gradientTransform="matrix(-38.14 0 0 -38.14 -13726.207 23621.5781)" gradientUnits="userSpaceOnUse">
								<stop  offset="0" style="stop-color:#FAEA27"/>
								<stop  offset="1" style="stop-color:#EB5D1E"/>
							</radialGradient>
							<path id="path152" style="fill:url(#path152_00000026142183452484683640000016488401460157889188_);" d="M207.2,87.7
								c0.2,0,0.5,0,0.8,0l0,0c0.7-0.1,1.4,0,2.1,0.1l0,0c-0.1,0.8-0.8,1-1.3,1.2l0,0c-1-0.7-2.1-1.2-3.3-1.3l0,0
								c0.3-0.5,1-0.5,1.7-0.6l0,0C207.4,87.4,206.9,87.7,207.2,87.7"/>
						</g>
					</g>
				</g>
			</g>
			<g id="g154">
				<g id="g156">
					<g id="g162">
						<g id="g164">
							
								<radialGradient id="path172_00000035530081931436880180000007405893144080732823_" cx="-365.6532" cy="616.0703" r="0.9798" gradientTransform="matrix(-38.14 0 0 -38.14 -13726.168 23621.5293)" gradientUnits="userSpaceOnUse">
								<stop  offset="0" style="stop-color:#FAEA27"/>
								<stop  offset="1" style="stop-color:#EB5D1E"/>
							</radialGradient>
							<path id="path172" style="fill:url(#path172_00000035530081931436880180000007405893144080732823_);" d="M214,89.1
								c-0.3,1.1-1.4,1-2.3,1.2l0,0c-0.4-0.6-1.1-1-1.3-1.6h0.5C212,88.8,213,88.9,214,89.1"/>
						</g>
					</g>
				</g>
			</g>
			<g id="g174">
				<g id="g176">
					<g id="g182">
						<g id="g184">
							
								<radialGradient id="path192_00000054267759749248146210000008289226794264948661_" cx="-365.6535" cy="616.0709" r="0.9798" gradientTransform="matrix(-38.14 0 0 -38.14 -13726.7676 23622.2891)" gradientUnits="userSpaceOnUse">
								<stop  offset="0" style="stop-color:#FAEA27"/>
								<stop  offset="1" style="stop-color:#EB5D1E"/>
							</radialGradient>
							<path id="path192" style="fill:url(#path192_00000054267759749248146210000008289226794264948661_);" d="M205.7,89.1
								c0.2,0,0.2,0.1,0.3,0.2l0,0l-0.1,1.1l0,0c-1,1.1-2.2,0.3-3.1,0.3l0,0c-2.5-0.1-5.1,0.6-7.4,0.9l0,0
								c-4.5,0.6-8.9,1.5-13.2,2.9l0,0c-2.1,0.8-4.2,1.3-6.4,1.8l0,0c8.6-3.8,18.3-7.1,29.5-7.1L205.7,89.1"/>
						</g>
					</g>
				</g>
			</g>
			<g id="g194">
				<g id="g196">
					<g id="g202">
						<g id="g204">
							
								<radialGradient id="path212_00000160150463257457727260000003150900553046108565_" cx="-365.6622" cy="616.0695" r="0.9798" gradientTransform="matrix(-38.14 0 0 -38.14 -13724.6875 23619.6582)" gradientUnits="userSpaceOnUse">
								<stop  offset="0" style="stop-color:#FAEA27"/>
								<stop  offset="1" style="stop-color:#EB5D1E"/>
							</radialGradient>
							<path id="path212" style="fill:url(#path212_00000160150463257457727260000003150900553046108565_);" d="M177.5,102.2
								c0,0.2,0.2,0.2,0.1,0.4l0,0c-3.9,6.4-4.1,17.3-5.1,25.1l0,0c-0.8-5.4-0.3-14,1.2-20.2l0,0c0.4-1.7,2-5.3,3.5-5.3l0,0
								C177.3,102.2,177.4,102.2,177.5,102.2"/>
						</g>
					</g>
				</g>
			</g>
			<g id="g214">
				<g id="g216">
					<g id="g222">
						<g id="g224">
							
								<radialGradient id="path232_00000115503990905294895360000008278926565536426893_" cx="-365.6532" cy="616.0706" r="0.9798" gradientTransform="matrix(-38.14 0 0 -38.14 -13726.377 23621.7383)" gradientUnits="userSpaceOnUse">
								<stop  offset="0" style="stop-color:#FAEA27"/>
								<stop  offset="1" style="stop-color:#EB5D1E"/>
							</radialGradient>
							<path id="path232" style="fill:url(#path232_00000115503990905294895360000008278926565536426893_);" d="M141.5,27.2
								c12.7,3.4,24.2,8.8,26.9,21.6l0,0c-1.3-1.1-1.8-2.9-2.6-4.4l0,0c-0.5-0.8-1-1.4-1.4-2.2l0,0c-0.5-0.6-0.9-1.3-1.2-2.2l0,0
								c-0.5-1.1-3.1-3.2-4.6-4.1l0,0c-12.8-7.4-27-8.4-31.3-12.9l0,0c0.7,1.6,2.6,2.8,4,4l0,0c19.9,3.9,27.6,19.6,28.7,21.5l0,0
								c-3.3-2.2-13.6-21.4-41.9-21.5l0,0c-3.6,0-8.1-0.1-11.4-2l0,0c2.1,3,7.8,2.4,10.9,4.6l0,0c-5.3-1.2-13.5-1.5-19-2.9l0,0
								c2,1.9,5.6,3.1,8.6,4.5l0,0c2.9,1.3,6.9,1.5,10.5,2.1l0,0c22.3,3.6,28.1,15.8,27.8,16.7l0,0c-2.1-1.6-6-8.9-22.8-13.1l0,0
								c-6-1.5-12.3-1.3-18.5-1.2l0,0c-11.3,0.1-22.3,5.1-33.6,2.2l0,0c4.6,3,8.6,4.1,14.5,5.9l0,0c23.3-5.9,36.9,3.6,37.7,4.7l0,0
								c-0.7,0.2-6.4-2.3-8.5-2.7l0,0c-19-4-33.6,0.7-47.4,5.5l0,0c-4.6,1.7-9.5,2.5-14.4,2.5l0,0c5.6,4.2,13.9,6.9,22.2,6.9l0,0
								c5.2-2.5,10.7-4.3,16.4-5.5l0,0c3.8-0.9,7.6-1.3,11.4-1.4l0,0c0.9,0,1.8,0,2.7,0l0,0c3.1-0.1,6.5-0.2,9.1,0.9l0,0
								c-0.7,0.6-2.4,0.3-3.1,0.3l0,0c-8.5-0.3-17.1,0.9-25.2,3.7l0,0c-8.8,3.1-17,7.6-24.4,13.2l0,0c-5.5,4.2-10.3,10.7-17.7,12.7
								l0,0c1.2,0.2,2.3,0.4,3.5,0.4l0,0c3,0.1,6.5,0,8.8-1l0,0c1.9-0.8,14.7-10,15.5-10.4l0,0c-0.8,1.6-18,14.1-25.6,19l0,0
								c0.8,0.4,11.8-3.9,17.1-6.7l0,0c0,0.6-3.8,3.8-5.2,5.3l0,0c-3.6,3.8-6.4,8.8-8.9,13.6l0,0c-3.7,7.2-7,16.4-11.7,22l0,0
								c1.3-0.1,4.5-2.4,5.3-2.9l0,0c0.7-0.5,1.5-1.5,2.3-1.2l0,0c0.2,0.6-0.6,1-1,1.5l0,0c-1.1,1.7-1.9,4.4-2.5,7l0,0
								c-1.3,5.3-2.2,10.3-3.8,14.9l0,0c1.5-1.7,2.8-3.6,4.4-5.2l0,0c1-0.9,4.2-4.5,4.9-2.7l0,0c-0.2,1.4-0.5,2.9-0.9,4.3l0,0
								c-1,3.4-2.3,6.8-3.9,9.9l0,0c-1.1,2.3-2.7,4.8-4,7.1l0,0c-1.7,2.7-6.1,8.2-6.4,7.8l0,0c1.7-2,3-4.9,4.5-6.3l0,0
								c2.5-4.8,6.3-12,7.4-18.6l0,0c-4.3,3.2-6.1,7.7-9.9,11.8l0,0c-0.8,0.9-1.5,1.9-1.9,3l0,0c-0.3-1.2,1.2-3.5,1.8-4.7l0,0
								c0.5-0.9,0.8-2,0.9-3l0,0c2.6-6.9,3.1-13.9,5.5-21.8l0,0c-3,1.4-6.2,2.5-9.5,2.9l0,0c-1.1,0.2-2.3,0.6-3.1,0.2l0,0
								c0.6-0.2,1.2-0.5,1.7-0.8l0,0c10.8-9.4,15.9-25.1,24-36.8l0,0c-4.4,1.9-12.8,3.6-17.3,1.5l0,0c2.6-0.2,5.1-0.8,7.5-1.9l0,0
								c1.8-1,3.5-2.1,5.1-3.3l0,0c1.7-1,3.2-2.1,4.7-3.3l0,0c-2.8,1.1-14.4,3.6-21.2-2.4l0,0c-0.4-0.3-1-0.6-1.3-1.1l0,0
								c11,3.1,27.7-11.4,29.8-13l0,0c1.3-1,2.5-2,2.8-2.2l0,0c1-0.6,1.8-1.3,2.8-2l0,0c2-1.3,4.4-2.1,6.3-3.7l0,0
								c-2.1,0.2-4.1-0.1-6.1-0.6l0,0c-2-0.2-4-0.6-5.9-1.2l0,0c-7.8-2.7-13.2-9.1-20-12.4l0,0c2.7-0.5,6.3,2.3,14.4,2.8l0,0
								c8.4,0.5,12.7-1.7,15.1-2.4l0,0c1.4-0.5,9.6-2.9,11.8-3.2l0,0c-14.9-2.8-20-13.9-20-13.9l0,0c1,1,2.1,1.9,3.2,2.5l0,0
								c2.9,1.5,7,2.1,10.3,2.5l0,0c2.5,0.3,7.8-0.5,13.9-1.3l0,0c5.7-0.9,11.5-1.3,17.3-1.4l0,0c-3-1.1-5.9-2.4-8.7-4l0,0
								c-3.2-2-6.4-4.8-7.6-8.3l0,0c3.9,3.9,12.4,5.5,16.4,6.1l0,0c-2.5-2.1-4.9-3.5-6-7.1l0,0c7.3,5.8,17.9,4.9,27.8,6.5l0,0
								c-3.2-3-5.9-6.4-8.1-10.3l0,0C120.4,16,129.9,24.4,141.5,27.2"/>
						</g>
					</g>
				</g>
			</g>
			<g id="g234">
				<g id="g236">
					<g id="g242">
						<g id="g244">
							
								<radialGradient id="path252_00000067946164826139083870000001260955224983932312_" cx="-365.6533" cy="616.0706" r="0.9798" gradientTransform="matrix(-38.14 0 0 -38.14 -13726.5879 23622.0684)" gradientUnits="userSpaceOnUse">
								<stop  offset="0" style="stop-color:#FAEA27"/>
								<stop  offset="1" style="stop-color:#EB5D1E"/>
							</radialGradient>
							<path id="path252" style="fill:url(#path252_00000067946164826139083870000001260955224983932312_);" d="M160.8,29.5
								c-1.5-1.9-4.1-3.5-4.6-5.9l0,0c2.5,2.4,5.9,4.1,8.6,6.6l0,0c2.8,2.5,4.8,5.5,7,8.4l0,0c-0.5-3.7-3.6-5.9-5.1-8.4l0,0
								c3.4,1.9,6.2,4.6,8.2,7.9l0,0c2.2,2.9,2.4,7.1,4.5,10.2l0,0c1.7-2.2,0.4-4.6-0.6-6.6l0,0c5.1,2.1,3.6,9.6,12,12.5l0,0
								c1.3,0.5,2.9,1.3,4.3,2l0,0c1.7,0.8,3.5,1.4,4.6,2.5l0,0c0.7,0.6,2.8,3.6,3.3,4.2l0,0c0.5,0.7,0.9,1.5,1.3,2l0,0
								c0.7,0.8,1.6,0.7,2.6,0.6l0,0c0.5-0.1,1.1-0.1,1.6-0.1l0,0c3.7,0.4,7,3.7,12.1,4.4l0,0c0.4,0.1,0.9,0.1,1.3,0.1l0,0
								c0.4-0.1,0.8-0.1,1.3,0l0,0c1.8,0.3,3.6,0.8,5.4,1.4l0,0c3.1,1,6.2,2.3,9.1,3.9l0,0c1.8,0.9,4.2,2.3,4.8,3.4l0,0
								c1.2,2.2-1.4,4.3-2.6,5.7l0,0c-0.4,3.1-2,2.5-2.6,2.4l0,0c-1,1-0.7,2.1-0.8,3.5l0,0c-0.7,5.2-2.5,7.6-6.2,9.3l0,0
								c-1,2-0.7,5.6-1.5,7.8l0,0c-0.9,2.5-2.2,4.9-3.9,7.1l0,0c0.9-2.8,1.7-6.9,1-9.5l0,0c-0.5-0.6-0.9-1.3-1-2.1l0,0
								c-0.1,0.3-0.2,0.1-0.3,0l0,0c-0.1-0.1-0.1-0.2-0.2-0.2l0,0c0.2,3.1-0.6,6.2-2.1,9l0,0c-1,1.9-2.1,3.7-3.3,5.3l0,0
								c-0.6,0.9-1.3,1.6-2.2,2.1l0,0c-0.1-1.1,1-1.5,1.1-3.2l0,0c2.2-5.2,2.7-15.2-2.6-17.4l0,0c-0.8,1-1.8,2.7-3.2,2.1l0,0
								c-1.3,2.6-2.8,4.8-3.3,8.3l0,0c-0.8,0.2-0.8-0.4-1.2-0.7l0,0c-1.8,2.8-3,6-3.8,9.2l0,0c-0.2,0.1-0.4,0.1-0.5,0l0,0
								c-0.2-0.1-0.3-0.1-0.5,0.1l0,0c-1,4.1-1.4,8.4-1.2,12.6l0,0c1.2,0.4,4,3,4.4,3.4l0,0c0.5,0.3,4.1,4.6,6.4,6.8l0,0
								c1.4-2.4,1.6-7,1.3-9.4l0,0c0.6,0.6,1.1,1.2,1.4,2l0,0c2,4.2,2,11.1,0.8,15.1l0,0c2.9-1.5,4.8-9.3,3.9-12.6l0,0
								c2,1.2,2.8,4.9,2.8,7.7l0,0c-0.1,3.5-2.4,5.2-2.8,7.4l0,0c0.5,4.6,3,8.2,0.8,12.9l0,0c-0.9,1.9-4.3,4.4-4.3,6.3l0,0
								c-0.2-0.4-0.1,0-0.1,0.5l0,0c0,0.4,0,0.7-0.3,0.6l0,0c-0.9-1.3-1.1-3-0.6-4.5l0,0c-1.3,1.5-3,3.1-3.5,5.5l0,0
								c-0.3,2,0.9,3.5,0.7,5.4l0,0c-2-1.8-2.3-5.1-3-7.9l0,0c-2.2,2.7-5.1,5-4.2,10.1l0,0c-1.2-1.9-1.5-3.9-0.7-6.9l0,0
								c0.6-1.9,2.2-3.4,1.8-5.6l0,0c-0.5,1.3-1.8,1.7-3,2.1l0,0c-0.3,0.5-0.5,1.1-1.2,1.1l0,0c0.6-1.7,1.7-2.7,2-4.6l0,0
								c-1.7,0.9-3.6,2-5.9,1.7l0,0c-0.8,1.1-2,1.9-3.4,2.3l0,0c-0.2-0.7,0.7-0.6,1-0.9l0,0c1.8-1.6,2.5-5.4,1.9-8.1l0,0
								c-0.3,1-0.7,1.9-1.2,2.8l0,0c-0.4,0.8-0.7,2.1-1.8,2.2l0,0c0.7-3.2,0.6-6.6-0.3-9.8l0,0c-0.3,0.9-0.8,1.8-1.4,2.5l0,0
								c-0.6,0.7-1.3,1.5-2.1,1.6l0,0c0.5-3-0.6-6-2.9-8l0,0c-2.5,1.3-3.6,4.3-4.9,6.9l0,0c1.1,2.7,2.2,5.3,2.2,8.4l0,0
								c0,6.7-3.4,14.2-2.6,20.1l0,0c0.3,1.8,1,4.9,1.5,7l0,0c-0.8-1.4-1.4-3-2-4.5l0,0c-2.1-4.8-0.2-14.1,0.6-20l0,0
								c-0.2-0.2,0.2-5.8-0.8-7.3l0,0c-1.8,3.5-3,7.2-3.8,11l0,0c0.1-8.1,2.4-15.2,5.1-22.5l0,0c3.3-8.9,1.8-19-1-27.8l0,0
								c1.6,1.5,2.5,4.2,3.1,6.7l0,0c0.8,3.1,1.3,6.3,1.5,9.5l0,0c0.1,3.4-0.2,6.8-0.7,10.2l0,0c0.5-2.3,2.8-0.3,3.5,0.7l0,0
								c1.3,2,2,5.8,2.6,7.6l0,0c1.1-1.8,0.8-4,0.5-6.1l0,0c1.2-0.4,1.4,1.2,1.8,2.1l0,0c0.8,2.5,1.3,5.1,1.4,7.7l0,0
								c0.3-1.5,1.2-3.3,1.7-4.9l0,0c0.3-1.3,0.3-3.1,2-2.6l0,0c-0.7,5,0.4,8.4-0.8,12.5l0,0c2.1,0.2,3.5-1.8,4.2-3l0,0
								c0.5-0.9,0.8-2.1,1.4-2.2l0,0c1.1,1.4,0.1,4.5,0,6.1l0,0c0.6-1,1.2-2.2,1.7-3.3l0,0c0.4,0,0.8,0.1,1.1,0.4l0,0
								c-0.5,3-0.4,5.1-1.7,7.2l0,0c2.4-2,3.7-6,4.4-9.9l0,0c0.3-1.5,0.2-2.5,1.1-3.5l0,0c0.6-0.1,1.1,0.2,1.4,0.7l0,0
								c-0.1,1-0.3,2.1-0.5,3.1l0,0c-0.7,2.9-2.3,5.9-1.4,9l0,0c0.3-0.9,0.2-1.7,0.5-2.4l0,0c1-2.6,3.1-3.1,4.6-4.8l0,0
								c0.5-0.6,0.5-1.4,1.2-1.8l0,0c0.6,1.6-0.9,3.8-1,5.6l0,0c2.5-2.5,4.6-9.3,2.3-13l0,0c-0.6,0.3-1.3,0.4-2,0.3l0,0
								c-2.8,1.2-5.9,1.3-9.2,0.6l0,0c-1.3-0.9-2.5-2.3-3.7-2.9l0,0c-2.1-3.3-3-6.6-5.5-9.2l0,0c-0.1,0.3-0.5,0.3-0.8,0.4l0,0
								c-2.6-2.6-4.7-5.5-6.5-8.6l0,0c-0.2,0.2-0.2,0.5-0.6,0.4l0,0c-0.4-1.2-1.4-1.8-1.8-3l0,0c1.2-3.8,2.7-7.4,3.4-11.8l0,0
								c-0.1-0.5-0.5-1.1,0-1.3l0,0c0.4-0.2,0.5,0,0.6,0.3l0,0c0.1,0.3,0.3,0.5,0.6,0.3l0,0c-0.4-1.2,0.5-2.7,0.2-3.8l0,0
								c0.3,0,0.5,0.2,0.6,0.4l0,0c0.2,0.2,0.4,0.5,0.6,0.3l0,0c0.2-1.6-0.5-2.8-0.4-4.1l0,0c0.3-0.2,0.4,0,0.5,0.3l0,0
								c0.1,0.2,0.2,0.4,0.4,0.4l0,0c1.5-2.4,0.8-6.9,2.8-8.9l0,0c0.9,0.6,0.4,1.7,1.2,2.3l0,0c0.3-3,1.3-5.9,3-8.5l0,0
								c1.7-2.6,3.2-5.2,5.9-4l0,0c0.5-0.3,1.1-0.4,1.4-1l0,0c-0.8-0.3-1.8,0-2.3-0.5l0,0c2.4-0.6,6.9-0.3,9.1,0.1l0,0
								c-1.1,1.4-4.4,0.5-5.7,1.7l0,0c1.8,1.8,4.1,1,6.1,0.9l0,0c-0.1,0.3-0.7,0.7-0.6,0.8l0,0c1.5,0.2,3-0.1,4.4-0.7l0,0
								c0.1-0.5,0.7-1.3,1.1-0.9l0,0c0.3,0.6-0.8,1-0.9,2.1l0,0c2.7-0.2,4-1.7,5.7-3.4l0,0c0.2,0.7-0.6,0.9-0.3,1.3l0,0
								c1.5,0.6,3.3,0.4,4.7-0.6l0,0c2.1-1.5,2.3-5.2,3.6-7.3l0,0c0.3,3-1.3,6.2-2.4,8.8l0,0c2.9-1.1,2.7-5.7,3.9-8.8l0,0
								c-0.3-0.2-0.5-0.5-0.6-0.7l0,0c2-1.4,4.7-2.1,5.5-5l0,0c-4.8-4.7-10.9-8-17.5-9.5l0,0c-1.4-0.3-2.8-0.3-4.3-0.2l0,0
								c-1,0.1-2.1,0.1-3.1,0l0,0c-3.2-2.2-7.4-4.2-11.3-4.5l0,0c-1.5-0.1-2.9,0.1-3.9-0.6l0,0c-1.5-1-2.1-4.6-3.6-5.9l0,0
								c-6.9-5.7-17.1-6.2-19-8.3l0,0c-3.2-3.6-4.6-11.7-5-12.3l0,0c0.3,2.2,0.7,5.7-0.6,7.2l0,0c-0.8-7.1-5.1-12.9-9.7-16.7l0,0
								c1.3,2.1,3.6,5.6,3.2,8.3l0,0c-3.1-3.8-6.1-7.5-11.2-9.5l0,0c-0.3-0.2-0.1-0.3-0.3-0.4l0,0c-3.5-1.3-7.5-3.1-11.4-4.3l0,0
								c3.6,3.8,8.5,4.7,12,7.1l0,0c-1.8-0.4-3.5-0.9-5.2-1.5l0,0c-3.2-1.2-6.1-3.1-8.6-5.6l0,0c-0.8-0.9-1.3-2.1-2.1-3l0,0
								c-0.8-1-2.1-1.8-2.3-3.4l0,0C142.5,23.4,153.8,24.6,160.8,29.5 M181.6,46.2c-0.9,1.7-1.1,4.4,0.5,5.5l0,0
								C181.5,50.2,181.6,48.1,181.6,46.2 M219.2,96.6c-1.3,0.2-2.3,0.7-4,0.5l0,0c0.6,1,2.3,0.2,3,1.1l0,0
								C217.9,97.5,218.9,97.3,219.2,96.6 M211.9,96.9c-2.8-0.3-5.6,0.2-6.6,2.5l0,0c0.1,0.3,0.6,0.2,0.8,0.3l0,0
								c-0.1-0.3-0.4-0.7-0.1-1l0,0c0.7,0.1,1.3,0.4,1.9,0.8l0,0c1.3-1.4,3-3,4.9-1.1l0,0c0.5-0.8,1.8-1,2.3-1.3l0,0
								c-1-0.4-2.1-0.4-3,0l0,0C211.9,97,212.2,96.9,211.9,96.9 M227.5,99.1c-1.3-1-3.2-0.4-4.2-1.9l0,0c-1.5,0.3-3.1,0.6-4.6,1.1
								l0,0c2.4,2.8,3.1,8.8,1.6,13.8l0,0c1.4-2.1,2.4-4.6,2.8-7.2l0,0c0.4-2.6-0.1-4.8-0.1-6.7l0,0c0.9,0.3,0.8,1.4,1,2.3l0,0
								c0.6-0.2,0.8,0.1,1.8,0.2l0,0c0.1-0.8,0.1-1.7,1-1.5l0,0c0.2,0.7,0.4,2.3-0.2,2.6l0,0c0.3,2,1,4.2,1,5.9l0,0
								C228.4,105.3,229.3,100.5,227.5,99.1 M195.3,129.1c-0.3,0.1-1.2,0.1-0.9,0.5l0,0c-0.2,0.1-0.4,0-0.5-0.2l0,0
								c-0.1-0.1-0.2-0.2-0.4-0.2l0,0c0.2,1.3,2.1,2.3,2.7,3.6l0,0c3.7,2.7,6.4,6.4,8.1,10.6l0,0c0.5,1.2,1.7,3.2,2.6,5.1l0,0
								c2.1-1.2,3.1-3.8,4.3-6l0,0c-2.7-4.4-5.8-9.3-10.8-11.4l0,0c1.1,1.4,3,2.4,3.6,4.6l0,0C201.8,133.7,199,130.7,195.3,129.1
								 M213.5,150c2.1-3.3,2.9-9.8,1.7-14l0,0c-0.6,6-3.4,10.3-5.8,13.6l0,0c0.8,0.5,1.8,0.7,2.7,0.8l0,0
								C212.5,150.3,213,150.2,213.5,150 M221.1,138.8c-1,3.8-2,7.5-4.1,9.9l0,0C221,148.5,221.9,142.5,221.1,138.8 M217,151.1
								c-0.7-0.4-1.5,0.5-2.4,0.5l0,0c0.3,0.1,0.5,0.1,0.8,0.1l0,0C216,151.7,216.6,151.5,217,151.1"/>
						</g>
					</g>
				</g>
			</g>
			<g id="g254">
				<g id="g256">
					<g id="g262">
						<g id="g264">
							
								<radialGradient id="path272_00000021831113761890002610000012032058028478352280_" cx="-365.6533" cy="616.0706" r="0.9798" gradientTransform="matrix(-38.14 0 0 -38.14 -13726.627 23622.1191)" gradientUnits="userSpaceOnUse">
								<stop  offset="0" style="stop-color:#FAEA27"/>
								<stop  offset="1" style="stop-color:#EB5D1E"/>
							</radialGradient>
							<path id="path272" style="fill:url(#path272_00000021831113761890002610000012032058028478352280_);" d="M178.8,58.4
								c0.2-0.1,0.5-0.1,0.7,0l0,0c3.5,0.8,19,8.3,25.5,12.6l0,0c4.5-0.5,8.9,1.1,12.3,2.6l0,0c0.8,0.3,1.6,0.7,2.2,1.3l0,0
								c-0.1,0.5-0.7,0.5-1.2,0.4l0,0c-0.3-0.1-0.6,0-0.9,0.1l0,0c-3.1-1.9-7.2-4.1-11.7-3.7l0,0c0.4,0.2,7,4.2,3.9,5.5l0,0
								c-0.4-0.1-0.4-0.6-1-0.5l0,0c-1.7-2.3-3.8-4.1-6.3-5.3l0,0c-2.9-3.2-7.2-5.3-11.2-7.6l0,0c0.6,1,1.5,1.7,2.1,2.8l0,0
								c-0.3,1-1,1.3-1.4,2.1l0,0c0.3,0.7,0.4,1.4,0.5,2.2l0,0c1-0.3,2.9-0.9,3.7-0.5l0,0c0,0.7-1.1,0.7-1.4,0.6l0,0
								c-2,0.6-3.4,1.2-5.6,2l0,0c-0.7-1.3-2.2-2-3.9-2.5l0,0c-2.3-0.6-4.6-0.7-7-0.3l0,0c0.2-0.9,1.3-0.8,2.1-0.9l0,0
								c2.7-0.9,5.6-1.5,8.5-1.7l0,0c0.4-0.6,1.4-0.4,1.9-0.9l0,0c0.8-1.8-1.5-3.2-2-4.3l0,0c-2.8-1.4-5.7-2.6-8.7-3.6l0,0
								c-0.8-0.3-1.9-0.4-2.5-1.1l0,0C178,57.8,178.6,58,178.8,58.4 M189.8,68.6c0.1,0.2,0.2,0.5,0.1,0.7l0,0h0.6l0,0
								C190.4,68.9,190.2,68.6,189.8,68.6L189.8,68.6 M187.8,69c-0.9,0.4-2.3,0-2.9,0.7l0,0c1.8,0.2,3.5,0.9,4.9,2.1l0,0
								c0.6,0,1-0.5,1.5-0.6l0,0c0.1-0.5-0.1-1-0.3-1.4l0,0c-0.4,0.4-0.9,0.7-1.5,0.7l0,0c-0.8,0.1-1.6-0.5-1.7-1.3
								C187.8,69.1,187.8,69,187.8,69"/>
						</g>
					</g>
				</g>
			</g>
			<g id="g274">
				<g id="g276">
					<g id="g282">
						<g id="g284">
							
								<radialGradient id="path292_00000002366533225664974460000007364890571340092037_" cx="-365.6532" cy="616.0706" r="0.9798" gradientTransform="matrix(-38.14 0 0 -38.14 -13726.3281 23621.7383)" gradientUnits="userSpaceOnUse">
								<stop  offset="0" style="stop-color:#FAEA27"/>
								<stop  offset="1" style="stop-color:#EB5D1E"/>
							</radialGradient>
							<path id="path292" style="fill:url(#path292_00000002366533225664974460000007364890571340092037_);" d="M214.9,78.1
								c1.3-0.3,3.1-0.1,3.9,1.3l0,0c-1.3,1.8-3.3-0.4-4.1-1.3l0,0c-1,0.8-2.7-0.7-3.5-1.4l0,0c0.2,0,0.4,0,0.6,0l0,0
								C213.2,76.7,214.7,77.4,214.9,78.1"/>
						</g>
					</g>
				</g>
			</g>
			<g id="g294">
				<g id="g296">
					<g id="g302">
						<g id="g304">
							
								<radialGradient id="path312_00000008840805812753642160000014180929536976660110_" cx="-366.0001" cy="616.6691" r="0.9798" gradientTransform="matrix(-36.36 0 0 -36.36 -13092.4414 22549.3613)" gradientUnits="userSpaceOnUse">
								<stop  offset="0" style="stop-color:#FAEA27"/>
								<stop  offset="1" style="stop-color:#EB5D1E"/>
							</radialGradient>
							<path id="path312" style="fill:url(#path312_00000008840805812753642160000014180929536976660110_);" d="M175.4,121
								c-0.3,4.6,0.3,9.3,1.6,13.8l0,0c-0.2,2,1.1,2.9,1.2,4.9l0,0c0,0.2,0.3,0.5,0.1,0.4l0,0c-2.4-3.5-3.6-8.5-4-13l0,0
								c-0.4-3.8-0.3-7.6,0.5-11.3l0,0c0.3-1.1,0.3-2.8,1.5-3.4l0,0C176.2,115.2,175.5,117.9,175.4,121"/>
						</g>
					</g>
				</g>
			</g>
			<g id="g314">
				<g id="g316">
					<g id="g322">
						<g id="g324">
							
								<radialGradient id="path332_00000003072648461546891330000015448276511463032711_" cx="-365.6543" cy="616.072" r="0.9798" gradientTransform="matrix(-38.14 0 0 -38.14 -13728.3477 23624.2988)" gradientUnits="userSpaceOnUse">
								<stop  offset="0" style="stop-color:#FAEA27"/>
								<stop  offset="1" style="stop-color:#EB5D1E"/>
							</radialGradient>
							<path id="path332" style="fill:url(#path332_00000003072648461546891330000015448276511463032711_);" d="M154.9,57.7
								c1.4,0.7,2.9,1.5,4.2,2.4l0,0c1.7,1.1,3.2,2.3,4.7,3.7l0,0c2.5,2.8,3.6,2.2,3.4,2.8l0,0c-0.4,0.4-0.8,0.6-1.3,0.6l0,0
								c-1.7,0.2-3.4-0.5-4.5-1.9l0,0c-2.4-2.8-6.7-6.2-10.3-7.5l0,0c-3.4-1.2-6.4-0.6-9.5,0l0,0c-1.9,0.4-3.8,0.6-5.6,0.7l0,0
								c3.5-1.5,7.3-2.3,11-2.2l0,0C149.8,56.1,152.5,56.6,154.9,57.7"/>
						</g>
					</g>
				</g>
			</g>
			<g id="g334">
				<g id="g336">
					<g id="g342">
						<g id="g344">
							
								<radialGradient id="path352_00000029047635629255156190000003918095157906657192_" cx="-365.6535" cy="616.0709" r="0.9798" gradientTransform="matrix(-38.14 0 0 -38.14 -13726.8574 23622.4082)" gradientUnits="userSpaceOnUse">
								<stop  offset="0" style="stop-color:#FAEA27"/>
								<stop  offset="1" style="stop-color:#EB5D1E"/>
							</radialGradient>
							<path id="path352" style="fill:url(#path352_00000029047635629255156190000003918095157906657192_);" d="M227.5,77.2
								c2.6,0.4,11,2.1,10.2,5.8l0,0c-0.2,0.9-2.3,2-3.6,1.9l0,0c-1.7-2.8-2.4-6.4-7.3-6.4l0,0c-0.4-1.7-1.6-2.5-2.6-3.6l0,0
								c0.2,0,0.2-0.2,0.3-0.3l0,0C225.3,75.5,227.2,76.1,227.5,77.2"/>
						</g>
					</g>
				</g>
			</g>
			<g id="g354">
				<g id="g356">
					<g id="g362">
						<g id="g364">
							
								<radialGradient id="path372_00000057837448802463930620000007903584402645441973_" cx="-365.6619" cy="616.0692" r="0.9798" gradientTransform="matrix(-38.14 0 0 -38.14 -13724.4277 23619.3379)" gradientUnits="userSpaceOnUse">
								<stop  offset="0" style="stop-color:#FAEA27"/>
								<stop  offset="1" style="stop-color:#EB5D1E"/>
							</radialGradient>
							<path id="path372" style="fill:url(#path372_00000057837448802463930620000007903584402645441973_);" d="M224.1,81.9
								c-1.7,1.2-4.2,0-4.2-1.7l0,0c0.2-0.1,0.3-0.1,0.4-0.1l0,0C221.7,80.3,223,80.9,224.1,81.9"/>
						</g>
					</g>
				</g>
			</g>
			<g id="g374">
				<g id="g376">
					<g id="g382">
						<g id="g384">
							
								<radialGradient id="path392_00000054230417663033739780000012766556088464039815_" cx="-365.6532" cy="616.0706" r="0.9798" gradientTransform="matrix(-38.14 0 0 -38.14 -13726.3965 23621.8184)" gradientUnits="userSpaceOnUse">
								<stop  offset="0" style="stop-color:#FAEA27"/>
								<stop  offset="1" style="stop-color:#EB5D1E"/>
							</radialGradient>
							<path id="path392" style="fill:url(#path392_00000054230417663033739780000012766556088464039815_);" d="M201.6,94.5
								c-0.7,0.5-2,0.6-1.8,1.7l0,0c-1.4,0.5-1.4,1.5-1.6,2.9l0,0c-4.2,3.9-6.1,10.3-9.1,15l0,0c0.2,0,0.2-0.1,0.3-0.1l0,0
								c-0.7,0.7-1,1.7-1.7,2l0,0c2.2-6.4,4.6-12.4,8.1-17.7l0,0c0-0.3,0.1-0.6,0.1-0.8l0,0c1.4-1.4,3-2.5,4.8-3.3l0,0
								C201.1,94,201.6,94.1,201.6,94.5"/>
						</g>
					</g>
				</g>
			</g>
		</g>
	</g>
</g>
<g id="Layer_4" class="st0">
	<g class="st24">
		<path class="st25" d="M88.7,177.1c0-7.9,4.7-13,11.9-13c4.9,0,9,2.5,10.2,6c0.2,0.5,0.3,1,0.3,1.4c0,1.5-1.1,2.3-2.5,2.3
			c-1.2,0-1.9-0.5-2.6-1.7c-1.2-2.3-2.9-3.4-5.3-3.4c-3.8,0-6.1,3.1-6.1,8.2c0,5.2,2.4,8.2,6.1,8.2c2.6,0,4.2-1.2,5.3-3.2
			c0.8-1.3,1.4-1.8,2.7-1.8c1.4,0,2.5,0.9,2.5,2.4c0,0.4-0.1,0.9-0.4,1.5c-1.4,3.4-5.5,5.8-10.2,5.8C93.4,190,88.7,185.1,88.7,177.1
			z"/>
		<path class="st25" d="M111.6,177.1c0-8,4.8-12.9,12-12.9c7.2,0,12,4.9,12,12.9c0,8.1-4.7,12.9-12,12.9S111.6,185.2,111.6,177.1z
			 M129.7,177.1c0-5.3-2.4-8.3-6.1-8.3s-6.1,3-6.1,8.3s2.4,8.3,6.1,8.3S129.7,182.4,129.7,177.1z"/>
		<path class="st25" d="M136.9,186.9v-19.8c0-1.8,1.1-3,2.8-3s2.9,1.1,2.9,3v1.7h0.1c1.3-3,3.9-4.7,7.7-4.7c5.5,0,8.6,3.5,8.6,9.3
			v13.5c0,2-1.2,3.1-2.9,3.1s-2.9-1.1-2.9-3.1v-12.3c0-3.5-1.6-5.5-5-5.5s-5.5,2.4-5.5,6v11.8c0,2-1.2,3.1-2.9,3.1
			S136.9,188.9,136.9,186.9z"/>
		<path class="st25" d="M160.7,185c-0.2-0.4-0.2-0.8-0.2-1.1c0-1.4,1-2.3,2.4-2.3c1,0,1.8,0.4,2.5,1.4c1.3,1.9,2.8,2.7,5.6,2.7
			c2.7,0,4.5-1.1,4.5-3c0-1.5-0.9-2.3-3.5-2.9l-4-0.9c-4.9-1.1-7.2-3.5-7.2-7.1c0-4.6,4-7.6,10.1-7.6c4.8,0,8.5,2.3,9.3,5.2
			c0.1,0.3,0.1,0.6,0.1,0.9c0,1.2-0.8,2.1-2.2,2.1c-0.8,0-1.7-0.3-2.2-1.1c-1.1-1.7-2.6-2.8-5-2.8c-2.6,0-4.3,1.2-4.3,3
			c0,1.5,1.1,2.4,3.7,3l4,0.9c5.2,1.2,7.3,3.1,7.3,6.8c0,4.8-4.3,7.9-10.6,7.9C165.6,190,161.9,188,160.7,185z"/>
		<path class="st25" d="M182.5,180.7v-13.5c0-1.9,1.2-3.1,2.9-3.1s2.9,1.1,2.9,3.1v12.3c0,3.6,1.7,5.5,5,5.5c3.4,0,5.5-2.4,5.5-6
			v-11.8c0-1.9,1.2-3.1,2.9-3.1s2.9,1.1,2.9,3.1V187c0,1.9-1.1,3-2.8,3s-2.8-1.1-2.8-3v-1.8h-0.1c-1.3,3-3.8,4.8-7.6,4.8
			C185.9,190,182.5,186.5,182.5,180.7z"/>
		<path class="st25" d="M207,186.9v-28.6c0-2,1.2-3.1,2.9-3.1s2.9,1.1,2.9,3.1v28.6c0,2-1.2,3.1-2.9,3.1S207,188.9,207,186.9z"/>
		<path class="st25" d="M217,169.2h-1.6c-1.5,0-2.3-0.9-2.3-2.3s0.9-2.2,2.3-2.2h1.6v-3.3c0-1.9,1.1-3,2.9-3c1.8,0,2.9,1.2,2.9,3
			v3.3h2.7c1.5,0,2.3,0.8,2.3,2.2s-0.9,2.3-2.3,2.3h-2.7v12.9c0,1.9,0.7,2.7,2.3,2.8h0.4c1.5,0.1,2.3,0.8,2.3,2.2
			c0,1.7-1.5,2.6-4.2,2.6h-0.2c-4.3,0-6.5-2.2-6.5-6.4v-14.1H217z"/>
		<path class="st25" d="M227.6,182.4c0-4.4,3.4-7.1,9.4-7.4l6.6-0.4v-1.8c0-2.6-1.8-4.1-4.6-4.1c-2.3,0-3.8,0.8-5.2,2.9
			c-0.6,0.8-1.4,1.2-2.4,1.2c-1.4,0-2.5-0.9-2.5-2.3c0-0.5,0.1-1.1,0.4-1.6c1.3-2.9,5.1-4.7,9.9-4.7c6.2,0,10.2,3.3,10.2,8.2V187
			c0,1.9-1.2,2.9-2.8,2.9s-2.7-1-2.8-2.7v-1.7h-0.1c-1.4,2.7-4.5,4.4-7.8,4.4C231.1,189.9,227.6,186.9,227.6,182.4z M243.7,180.3
			v-1.9l-5.8,0.4c-2.8,0.2-4.4,1.5-4.4,3.4c0,2,1.7,3.3,4.2,3.3C241,185.5,243.7,183.3,243.7,180.3z"/>
		<path class="st25" d="M251.6,186.9v-19.8c0-1.8,1.1-3,2.8-3s2.9,1.1,2.9,3v1.7h0.1c1.3-3,3.9-4.7,7.7-4.7c5.5,0,8.6,3.5,8.6,9.3
			v13.5c0,2-1.2,3.1-2.9,3.1s-2.9-1.1-2.9-3.1v-12.3c0-3.5-1.6-5.5-5-5.5s-5.5,2.4-5.5,6v11.8c0,2-1.2,3.1-2.9,3.1
			S251.6,188.9,251.6,186.9z"/>
		<path class="st25" d="M277.5,169.2H276c-1.5,0-2.3-0.9-2.3-2.3s0.9-2.2,2.3-2.2h1.6v-3.3c0-1.9,1.1-3,2.9-3s2.9,1.2,2.9,3v3.3h2.7
			c1.5,0,2.3,0.8,2.3,2.2s-0.9,2.3-2.3,2.3h-2.7v12.9c0,1.9,0.7,2.7,2.3,2.8h0.4c1.5,0.1,2.3,0.8,2.3,2.2c0,1.7-1.5,2.6-4.2,2.6H284
			c-4.3,0-6.5-2.2-6.5-6.4V169.2L277.5,169.2z M279,199.8c0-0.3,0.1-0.7,0.2-1l1.5-4.7c0.5-1.3,1.1-1.9,2.4-1.9s2.2,0.8,2.2,1.9
			c0,0.5-0.1,0.9-0.4,1.4l-1.8,4.5c-0.5,1.1-1.1,1.5-2.1,1.5C279.8,201.6,279,200.9,279,199.8z"/>
		<path class="st25" d="M289.3,158c0-1.8,1.4-3.2,3.2-3.2c1.8,0,3.3,1.4,3.3,3.2s-1.4,3.2-3.3,3.2
			C290.8,161.2,289.3,159.8,289.3,158z M289.7,186.9v-19.7c0-1.9,1.1-3.1,2.9-3.1s2.9,1.2,2.9,3.1v19.6c0,1.9-1.1,3.1-2.9,3.1
			S289.7,188.8,289.7,186.9z"/>
		<path class="st25" d="M304,177.1c0-7.9,4.1-12.8,10.3-12.8c3.6,0,6.4,1.9,7.7,4.6h0.1v-10.5c0-2,1.2-3.1,2.9-3.1s2.9,1.1,2.9,3.1
			v28.8c0,1.9-1.2,2.9-2.9,2.9s-3-1-3-2.9v-1.9l0,0c-1.2,2.9-3.9,4.8-7.7,4.8C308,189.9,304,185,304,177.1z M322.1,177.1
			c0-4.9-2.4-8-6.1-8c-3.8,0-6.1,3.1-6.1,8s2.3,8,6.1,8C319.7,185.1,322.1,182,322.1,177.1z"/>
		<path class="st25" d="M329.3,182.4c0-4.4,3.4-7.1,9.4-7.4l6.6-0.4v-1.8c0-2.6-1.8-4.1-4.6-4.1c-2.3,0-3.8,0.8-5.2,2.9
			c-0.6,0.8-1.4,1.2-2.4,1.2c-1.4,0-2.5-0.9-2.5-2.3c0-0.5,0.1-1.1,0.4-1.6c1.3-2.9,5.1-4.7,9.9-4.7c6.2,0,10.2,3.3,10.2,8.2V187
			c0,1.9-1.2,2.9-2.8,2.9c-1.6,0-2.7-1-2.8-2.7v-1.7h-0.1c-1.4,2.7-4.5,4.4-7.8,4.4C332.8,189.9,329.3,186.9,329.3,182.4z
			 M345.4,180.3v-1.9l-5.8,0.4c-2.8,0.2-4.4,1.5-4.4,3.4c0,2,1.7,3.3,4.2,3.3C342.7,185.5,345.4,183.3,345.4,180.3z"/>
		<path class="st25" d="M353.2,180.7v-13.5c0-1.9,1.2-3.1,2.9-3.1s2.9,1.1,2.9,3.1v12.3c0,3.6,1.7,5.5,5,5.5c3.4,0,5.5-2.4,5.5-6
			v-11.8c0-1.9,1.2-3.1,2.9-3.1c1.7,0,2.9,1.1,2.9,3.1V187c0,1.9-1.1,3-2.8,3c-1.7,0-2.8-1.1-2.8-3v-1.8h-0.1
			c-1.3,3-3.8,4.8-7.6,4.8C356.6,190,353.2,186.5,353.2,180.7z"/>
		<path class="st25" d="M377.6,186.9v-19.8c0-1.8,1.1-3,2.8-3c1.7,0,2.9,1.1,2.9,3v1.7h0.1c1.3-3,3.9-4.7,7.7-4.7
			c5.5,0,8.6,3.5,8.6,9.3v13.5c0,2-1.2,3.1-2.9,3.1s-2.9-1.1-2.9-3.1v-12.3c0-3.5-1.6-5.5-5-5.5s-5.5,2.4-5.5,6v11.8
			c0,2-1.2,3.1-2.9,3.1S377.6,188.9,377.6,186.9z"/>
		<path class="st25" d="M400.9,177.2c0-7.9,4.6-13,11.7-13c6.8,0,11.4,4.8,11.4,11.6c0,1.7-1,2.8-2.7,2.8h-14.6v0.2
			c0,4.1,2.4,6.8,6.2,6.8c2.6,0,4.3-0.9,6.2-3.3c0.6-0.7,1.1-0.9,2-0.9c1.3,0,2.3,0.8,2.3,2.2c0,0.4-0.1,1-0.4,1.5
			c-1.6,3.2-5.3,5-10.1,5C405.4,190,400.9,185.3,400.9,177.2z M418.3,174.7c-0.1-3.6-2.4-6-5.7-6s-5.7,2.4-5.9,6H418.3z"/>
	</g>
</g>
</svg>
