<?xml version="1.0" encoding="utf-8"?>
<!-- Generator: Adobe Illustrator 25.4.1, SVG Export Plug-In . SVG Version: 6.00 Build 0)  -->
<svg version="1.1" xmlns="http://www.w3.org/2000/svg" xmlns:xlink="http://www.w3.org/1999/xlink" x="0px" y="0px"
	 viewBox="0 0 500 500" style="enable-background:new 0 0 500 500;" xml:space="preserve">
<style type="text/css">
	.st0{fill:none;}
	.st1{opacity:0.3;}
	.st2{fill:url(#path32_00000144318041745357649520000015837917185749900476_);}
	.st3{fill:url(#path52_00000104671932433834852630000017202772038107021995_);}
	.st4{fill:url(#path72_00000093877127461633989220000012425395005558515084_);}
	.st5{fill:url(#path92_00000099652407416431875890000004685269981499601555_);}
	.st6{fill:url(#path112_00000162314072677659952560000014781123021279221903_);}
	.st7{fill:url(#path132_00000022519893956030367010000014198684872754565300_);}
	.st8{fill:url(#path152_00000131326075955424625250000004931891263512237707_);}
	.st9{fill:url(#path172_00000070827005640644862280000013391981064767205775_);}
	.st10{fill:url(#path192_00000127731275039239406890000003923083300014355336_);}
	.st11{fill:url(#path212_00000054238351790506218230000016436346466156320668_);}
	.st12{fill:url(#path232_00000113334075634451390700000005524423655709211779_);}
	.st13{fill:url(#path252_00000000929600933105305860000001835268116975063984_);}
	.st14{fill:url(#path272_00000055684459383436300060000017507324128399968954_);}
	.st15{fill:url(#path292_00000057854771720300274020000013541946605402328985_);}
	.st16{fill:url(#path312_00000165940877172747242220000007171336447264065700_);}
	.st17{fill:url(#path332_00000024704315100990199440000015525129174668279203_);}
	.st18{fill:url(#path352_00000032607074263500245560000009256540813345558163_);}
	.st19{fill:url(#path372_00000052806622806247405420000013863117917346981001_);}
	.st20{fill:url(#path392_00000091701995832364617750000016744237002556968578_);}
	.st21{fill:#F18831;}
	.st22{font-family:'HelveticaRoundedLTStd-Bd';}
	.st23{font-size:60px;}
</style>
<g id="Layer_3">
	<rect class="st0" width="500" height="500"/>
</g>
<g id="Layer_1">
	<g id="Layer_2_00000171716126861105033120000016240704036820374447_">
		<g id="svg8">
			<g id="layer1">
				<g id="g12" class="st1">
					<g id="g3548">
						<g id="g14">
							<g id="g16">
								<g id="g22">
									<g id="g24">
										
											<radialGradient id="path32_00000078016085603701990070000002614421031279444355_" cx="-590.3342" cy="-217.2149" r="1.9" gradientTransform="matrix(-38.14 0 0 38.14 -22102.4805 8573.6299)" gradientUnits="userSpaceOnUse">
											<stop  offset="0" style="stop-color:#FAEA27"/>
											<stop  offset="1" style="stop-color:#EB5D1E"/>
										</radialGradient>
										<path id="path32" style="fill:url(#path32_00000078016085603701990070000002614421031279444355_);" d="M291.1,184.6
											c7.2,3.7,15.9,4.4,23.6,6.2l0,0c-0.7,1.5-3.5,1.4-6,1.3l0,0c-0.9-0.1-1.9-0.1-2.8,0l0,0c7.6,3.7,13.9,9.5,18.5,16.6l0,0
											c2.9,2,4.3,5.5,5.9,8.4l0,0c1,1.9,2.8,3.8,1.9,5.7l0,0c-1.8-0.6-10.1-14.6-24-17.6l0,0c2,2.4,3.9,5,5.7,7.6l0,0
											c2.6,4.6,4.7,9.5,6.2,14.5l0,0c1.7,5.7,2.2,11.8,3.2,16.2l0,0c0.3,1.6,1.6,3.2,0.9,4.8l0,0c-1.3-0.5-1.9-2.4-2.6-3.7l0,0
											c-2.3-4.5-4.3-9.5-8-12.6l0,0c0,0.3,0.2,0.3,0.2,0.6l0,0c6.3,12.8,3.2,34.5-0.3,48.4l0,0c-0.6-0.3-0.5,1.3-1.2,1.7l0,0
											c0.6-11.4,4.1-22.9,3-33.6l0,0c-1-8.8-4-17.3-8.8-24.8l0,0c2.7-0.2,5.3,2.1,7.1,4l0,0c2.8,2.9,4.5,7.3,6.9,9.3l0,0
											c-2.8-13.4-10-25.4-20.5-34.2l0,0c-1.3-1.1-11.4-4.5-10.2-8.2l0,0c0.4,0.7,1,1.2,1.7,1.5l0,0c4.1,1.5,9.1,1.9,13.5,3.2
											l0,0c5.4,1.6,9.5,4.4,13.5,6.1l0,0c-3.4-5.8-10.5-9.9-14.4-14.4l0,0c-6.6-0.6-12.7-3.8-17-8.8l0,0
											c0.2-0.1,0.5-0.1,0.7-0.1l0,0C289.2,182.8,290,184,291.1,184.6"/>
									</g>
								</g>
							</g>
						</g>
						<g id="g34">
							<g id="g36">
								<g id="g42">
									<g id="g44">
										
											<radialGradient id="path52_00000009559955415791006080000015225840751419977126_" cx="-590.3392" cy="-217.2213" r="1.9" gradientTransform="matrix(-38.14 0 0 38.14 -22102.2695 8573.3604)" gradientUnits="userSpaceOnUse">
											<stop  offset="0" style="stop-color:#FAEA27"/>
											<stop  offset="1" style="stop-color:#EB5D1E"/>
										</radialGradient>
										<path id="path52" style="fill:url(#path52_00000009559955415791006080000015225840751419977126_);" d="M365.8,196
											c0.4,0,5,1.4,7,1.9l0,0c1.1,0.4,2.2,0.8,3.3,1.1l0,0c0.2,0,0-0.6,0.3-0.5l0,0c1.4,0.4,2.7,1.3,4.1,1.7l0,0
											c4.1,1.1,9.1,1.9,12,5l0,0c1,0.1,2.4,0,2.3,1l0,0c-1.1,1.2-3.4,0.6-4.8,0.4l0,0c-4.2-0.5-8.9-2.7-12.9-4.2l0,0
											c-1.9-0.7-4.4-1.8-6.7-2.4l0,0c-3.6-1-7.6-2-10.9-2.8l0,0c-13.9-3.1-28.1-4.5-42.3-4.3l0,0c4.4-0.5,8.8-0.7,13.2-0.7l0,0
											C342.4,192.2,354.2,193.5,365.8,196"/>
									</g>
								</g>
							</g>
						</g>
						<g id="g54">
							<g id="g56">
								<g id="g62">
									<g id="g64">
										
											<radialGradient id="path72_00000016048782111709735530000015203490098116987044_" cx="-590.3116" cy="-217.1632" r="1.9" gradientTransform="matrix(-38.13 0 0 38.13 -22098.4609 8573.5498)" gradientUnits="userSpaceOnUse">
											<stop  offset="0" style="stop-color:#FAEA27"/>
											<stop  offset="1" style="stop-color:#EB5D1E"/>
										</radialGradient>
										<path id="path72" style="fill:url(#path72_00000016048782111709735530000015203490098116987044_);" d="M427.4,210.6
											c0,0.4-0.5,0.4-0.6,0.7l0,0c-1.1-0.8-2.8-1.1-3.2-2.4l0,0h1l0,0C425.8,208.8,427,209.5,427.4,210.6"/>
									</g>
								</g>
							</g>
						</g>
						<g id="g74">
							<g id="g76">
								<g id="g82">
									<g id="g84">
										
											<radialGradient id="path92_00000062878066503183126740000007162776851669884338_" cx="-590.4261" cy="-217.3069" r="1.9" gradientTransform="matrix(-38.14 0 0 38.14 -22099.3906 8569.7295)" gradientUnits="userSpaceOnUse">
											<stop  offset="0" style="stop-color:#FAEA27"/>
											<stop  offset="1" style="stop-color:#EB5D1E"/>
										</radialGradient>
										<path id="path92" style="fill:url(#path92_00000062878066503183126740000007162776851669884338_);" d="M403.9,209.2
											c-0.3,0-0.3,0.4-0.3,0.8l0,0c-1.3,0.2-2.7,0.3-4,0.2l0,0c-0.3-1.2-1.9-1.3-2.2-2.6l0,0c0.7-0.4,1.4-0.6,2.1-0.5l0,0
											C401.3,207,402.9,207.8,403.9,209.2"/>
									</g>
								</g>
							</g>
						</g>
						<g id="g94">
							<g id="g96">
								<g id="g102">
									<g id="g104">
										
											<radialGradient id="path112_00000174569958573408282120000008768061452696316047_" cx="-590.4209" cy="-217.3232" r="1.9" gradientTransform="matrix(-38.15 0 0 38.15 -22104.5898 8571.3086)" gradientUnits="userSpaceOnUse">
											<stop  offset="0" style="stop-color:#FAEA27"/>
											<stop  offset="1" style="stop-color:#EB5D1E"/>
										</radialGradient>
										<path id="path112" style="fill:url(#path112_00000174569958573408282120000008768061452696316047_);" d="M411.4,211.8
											c-0.7,2.5-3.6,1.6-5.9,1.4l0,0c-0.2-0.9,0.5-0.6,0.6-1l0,0c-0.4-0.6-1.5-0.5-1.2-1.7l0,0c0.5-0.4,1.2-0.7,1.9-0.7l0,0
											C408.5,209.9,410,210.6,411.4,211.8"/>
									</g>
								</g>
							</g>
						</g>
						<g id="g114">
							<g id="g116">
								<g id="g122">
									<g id="g124">
										
											<radialGradient id="path132_00000090999491779037428320000010904894656433355682_" cx="-590.3742" cy="-217.2643" r="1.9" gradientTransform="matrix(-38.15 0 0 38.15 -22106.5703 8573.8086)" gradientUnits="userSpaceOnUse">
											<stop  offset="0" style="stop-color:#FAEA27"/>
											<stop  offset="1" style="stop-color:#EB5D1E"/>
										</radialGradient>
										<path id="path132" style="fill:url(#path132_00000090999491779037428320000010904894656433355682_);" d="M417.7,215.4
											c0,0.8-0.7,0.8-0.7,1.5l0,0c-1-1-2.3-0.3-2.8-1.8l0,0c0.3-0.3,0.7-0.5,1.1-0.5l0,0C416.2,214.7,417,214.9,417.7,215.4"/>
									</g>
								</g>
							</g>
						</g>
						<g id="g134">
							<g id="g136">
								<g id="g142">
									<g id="g144">
										
											<radialGradient id="path152_00000012452689613445478000000008288945633805183138_" cx="-590.3416" cy="-217.2241" r="1.9" gradientTransform="matrix(-38.14 0 0 38.14 -22102.1699 8573.2393)" gradientUnits="userSpaceOnUse">
											<stop  offset="0" style="stop-color:#FAEA27"/>
											<stop  offset="1" style="stop-color:#EB5D1E"/>
										</radialGradient>
										<path id="path152" style="fill:url(#path152_00000012452689613445478000000008288945633805183138_);" d="M389,216.7
											c0.4,0,0.9,0,1.5,0l0,0c1.4-0.1,2.7,0,4.1,0.2l0,0c-0.2,1.5-1.5,1.9-2.6,2.4l0,0c-1.9-1.4-4.1-2.3-6.4-2.6l0,0
											c0.6-0.9,1.9-1,3.3-1.1l0,0C389.5,216.1,388.5,216.6,389,216.7"/>
									</g>
								</g>
							</g>
						</g>
						<g id="g154">
							<g id="g156">
								<g id="g162">
									<g id="g164">
										
											<radialGradient id="path172_00000145773048030909922680000002928600242877581758_" cx="-590.3425" cy="-217.2253" r="1.9" gradientTransform="matrix(-38.14 0 0 38.14 -22102.1309 8573.1904)" gradientUnits="userSpaceOnUse">
											<stop  offset="0" style="stop-color:#FAEA27"/>
											<stop  offset="1" style="stop-color:#EB5D1E"/>
										</radialGradient>
										<path id="path172" style="fill:url(#path172_00000145773048030909922680000002928600242877581758_);" d="M402.3,219.4
											c-0.6,2.2-2.7,1.9-4.4,2.3l0,0c-0.7-1.2-2.1-1.9-2.6-3.1h0.9C398.3,218.7,400.3,219,402.3,219.4"/>
									</g>
								</g>
							</g>
						</g>
						<g id="g174">
							<g id="g176">
								<g id="g182">
									<g id="g184">
										
											<radialGradient id="path192_00000014620171052054681300000001809884083212435080_" cx="-590.3283" cy="-217.2073" r="1.9" gradientTransform="matrix(-38.14 0 0 38.14 -22102.7305 8573.9502)" gradientUnits="userSpaceOnUse">
											<stop  offset="0" style="stop-color:#FAEA27"/>
											<stop  offset="1" style="stop-color:#EB5D1E"/>
										</radialGradient>
										<path id="path192" style="fill:url(#path192_00000014620171052054681300000001809884083212435080_);" d="M386.1,219.4
											c0.3,0,0.3,0.2,0.5,0.3l0,0l-0.2,2.1l0,0c-1.9,2.1-4.3,0.6-6.1,0.6l0,0c-4.9-0.2-9.8,1.1-14.4,1.7l0,0
											c-8.7,1.1-17.3,2.9-25.6,5.6l0,0c-4.1,1.5-8.2,2.6-12.5,3.5l0,0c16.7-7.4,35.5-13.7,57.2-13.7L386.1,219.4"/>
									</g>
								</g>
							</g>
						</g>
						<g id="g194">
							<g id="g196">
								<g id="g202">
									<g id="g204">
										
											<radialGradient id="path212_00000082351380526844049010000003835185748503312020_" cx="-590.3964" cy="-217.2694" r="1.9" gradientTransform="matrix(-38.14 0 0 38.14 -22100.6504 8571.3193)" gradientUnits="userSpaceOnUse">
											<stop  offset="0" style="stop-color:#FAEA27"/>
											<stop  offset="1" style="stop-color:#EB5D1E"/>
										</radialGradient>
										<path id="path212" style="fill:url(#path212_00000082351380526844049010000003835185748503312020_);" d="M331.4,244.8
											c0,0.3,0.3,0.4,0.2,0.8l0,0c-7.6,12.4-7.9,33.6-9.8,48.7l0,0c-1.6-10.4-0.6-27.2,2.4-39.2l0,0c0.8-3.3,3.8-10.3,6.8-10.3
											l0,0C331.1,244.7,331.2,244.7,331.4,244.8"/>
									</g>
								</g>
							</g>
						</g>
						<g id="g214">
							<g id="g216">
								<g id="g222">
									<g id="g224">
										
											<radialGradient id="path232_00000171710768022992256500000015807511843075646636_" cx="-590.3375" cy="-217.2203" r="1.9" gradientTransform="matrix(-38.14 0 0 38.14 -22102.3398 8573.3994)" gradientUnits="userSpaceOnUse">
											<stop  offset="0" style="stop-color:#FAEA27"/>
											<stop  offset="1" style="stop-color:#EB5D1E"/>
										</radialGradient>
										<path id="path232" style="fill:url(#path232_00000171710768022992256500000015807511843075646636_);" d="M261.7,99.4
											c24.7,6.5,47,17.1,52.2,41.8l0,0c-2.5-2.2-3.4-5.7-5.1-8.6l0,0c-0.9-1.6-1.9-2.8-2.8-4.2l0,0c-1-1.2-1.8-2.6-2.3-4.2l0,0
											c-1-2.1-6-6.3-8.9-7.9l0,0c-24.9-14.3-52.3-16.2-60.6-25.1l0,0c1.4,3.1,5,5.5,7.8,7.8l0,0c38.6,7.6,53.5,38.1,55.6,41.6
											l0,0c-6.4-4.2-26.4-41.4-81.3-41.6l0,0c-6.9,0-15.7-0.2-22.2-3.9l0,0c4.1,5.9,15.1,4.6,21.2,8.9l0,0
											c-10.3-2.4-26.2-3-36.8-5.7l0,0c3.8,3.6,10.8,6,16.7,8.8l0,0c5.6,2.6,13.4,3,20.3,4.1l0,0c43.3,6.9,54.5,30.6,54,32.3l0,0
											c-4.1-3.1-11.7-17.2-44.2-25.4l0,0c-11.6-2.9-23.8-2.5-35.8-2.4l0,0c-21.9,0.2-43.2,9.9-65.2,4.2l0,0
											c8.9,5.9,16.6,8,28.2,11.4l0,0c45.1-11.5,71.5,7,73.1,9.2l0,0c-1.3,0.3-12.5-4.4-16.4-5.3l0,0c-36.9-7.8-65.2,1.4-92,10.6
											l0,0c-8.9,3.3-18.4,4.9-27.9,4.8l0,0c10.8,8.1,27,13.3,43.1,13.3l0,0c10.1-4.8,20.8-8.4,31.8-10.6l0,0
											c7.3-1.7,14.7-2.6,22.2-2.7l0,0c1.7,0,3.5,0,5.3,0l0,0c6-0.1,12.6-0.3,17.6,1.7l0,0c-1.3,1.1-4.6,0.6-6.1,0.6l0,0
											c-16.5-0.6-33.1,1.8-48.8,7.1l0,0c-17,6-33,14.7-47.4,25.6l0,0c-10.7,8.1-19.9,20.7-34.3,24.7l0,0
											c2.3,0.4,4.5,0.7,6.8,0.8l0,0c5.9,0.2,12.7,0,17.1-2l0,0c3.6-1.6,28.5-19.3,30-20.1l0,0c-1.5,3.1-34.9,27.4-49.6,36.9l0,0
											c1.5,0.7,22.8-7.6,33.1-12.9l0,0c0,1.2-7.4,7.4-10.1,10.3l0,0c-7,7.4-12.5,17.1-17.3,26.4l0,0
											c-7.2,14-13.5,31.8-22.6,42.6l0,0c2.5-0.2,8.8-4.7,10.3-5.7l0,0c1.4-1,3-2.9,4.4-2.3l0,0c0.3,1.2-1.2,2-1.9,3l0,0
											c-2.1,3.2-3.6,8.6-4.8,13.6l0,0c-2.6,10.3-4.3,19.9-7.4,28.8l0,0c3-3.3,5.4-7,8.5-10.1l0,0c1.9-1.8,8.2-8.8,9.5-5.3l0,0
											c-0.3,2.8-0.9,5.6-1.7,8.3l0,0c-1.9,6.6-4.5,13.1-7.6,19.2l0,0c-2.1,4.4-5.2,9.4-7.7,13.7l0,0
											c-3.2,5.3-11.8,15.9-12.4,15.2l0,0c3.2-3.9,5.9-9.5,8.7-12.3l0,0c4.8-9.3,12.2-23.3,14.4-36.1l0,0
											c-8.4,6.2-11.9,14.9-19.2,22.8l0,0c-1.6,1.7-2.9,3.7-3.7,5.9l0,0c-0.5-2.3,2.4-6.8,3.5-9.1l0,0c1-1.8,1.6-3.9,1.8-5.9l0,0
											c5.1-13.3,6.1-26.9,10.6-42.3l0,0c-5.8,2.8-12.1,4.8-18.5,5.7l0,0c-2.2,0.3-4.5,1.1-6.1,0.3l0,0c1.2-0.3,2.3-0.9,3.3-1.6
											l0,0c21-18.2,30.8-48.6,46.6-71.3l0,0c-8.6,3.6-24.9,6.9-33.5,3l0,0c5-0.3,9.9-1.6,14.5-3.7l0,0c3.4-1.9,6.7-4.1,9.8-6.4
											l0,0c3.2-1.9,6.3-4,9.2-6.4l0,0c-5.5,2.1-27.9,6.9-41.2-4.7l0,0c-0.7-0.6-1.9-1.1-2.5-2.1l0,0c21.4,6,53.7-22.1,57.8-25.3
											l0,0c2.5-1.9,4.8-3.8,5.5-4.2l0,0c1.9-1.2,3.5-2.6,5.4-3.8l0,0c3.9-2.5,8.6-4.1,12.2-7.2l0,0c-4,0.4-8-0.1-11.8-1.2l0,0
											c-3.9-0.4-7.7-1.1-11.4-2.3l0,0c-15.2-5.2-25.6-17.7-38.8-24.1l0,0c5.3-0.9,12.3,4.5,27.9,5.5l0,0
											c16.3,1,24.6-3.2,29.2-4.7l0,0c2.8-0.9,18.6-5.7,22.8-6.3l0,0c-28.8-5.5-38.7-26.9-38.7-26.9l0,0c1.9,1.9,4,3.6,6.3,4.9
											l0,0c5.7,3,13.5,4.1,20,4.8l0,0c4.8,0.6,15.2-1,27-2.6l0,0c11.1-1.7,22.3-2.6,33.5-2.7l0,0c-5.8-2.2-11.4-4.7-16.8-7.8
											l0,0c-6.3-3.8-12.4-9.4-14.8-16l0,0c7.6,7.6,24.1,10.6,31.8,11.9l0,0c-4.9-4-9.5-6.7-11.6-13.7l0,0
											c14.1,11.2,34.8,9.5,54,12.7l0,0c-6.2-5.8-11.5-12.5-15.8-19.9l0,0C220.8,77.6,239.2,94,261.7,99.4"/>
									</g>
								</g>
							</g>
						</g>
						<g id="g234">
							<g id="g236">
								<g id="g242">
									<g id="g244">
										
											<radialGradient id="path252_00000106834607842360797190000016670809461132998334_" cx="-590.3325" cy="-217.2125" r="1.9" gradientTransform="matrix(-38.14 0 0 38.14 -22102.5508 8573.7295)" gradientUnits="userSpaceOnUse">
											<stop  offset="0" style="stop-color:#FAEA27"/>
											<stop  offset="1" style="stop-color:#EB5D1E"/>
										</radialGradient>
										<path id="path252" style="fill:url(#path252_00000106834607842360797190000016670809461132998334_);" d="M299.1,103.7
											c-2.9-3.7-7.9-6.8-8.9-11.4l0,0c4.8,4.7,11.4,8,16.7,12.8l0,0c5.4,4.8,9.3,10.7,13.5,16.2l0,0c-0.9-7.2-7-11.4-9.8-16.2
											l0,0c6.5,3.7,12,9,15.9,15.4l0,0c4.2,5.7,4.7,13.7,8.7,19.8l0,0c3.2-4.3,0.7-8.9-1.1-12.8l0,0c9.9,4.1,7,18.6,23.3,24.2
											l0,0c2.6,0.9,5.7,2.5,8.3,3.8l0,0c3.2,1.5,6.7,2.8,8.9,4.8l0,0c1.3,1.2,5.5,7,6.4,8.2l0,0c1,1.3,1.7,2.9,2.6,3.9l0,0
											c1.3,1.5,3.1,1.3,5.1,1.1l0,0c1-0.2,2.1-0.2,3.1-0.1l0,0c7.2,0.8,13.6,7.1,23.4,8.5l0,0c0.8,0.1,1.7,0.1,2.5,0.1l0,0
											c0.8-0.1,1.6-0.1,2.5,0l0,0c3.5,0.6,7,1.5,10.4,2.7l0,0c6.1,1.9,12,4.4,17.6,7.6l0,0c3.5,1.7,8.1,4.4,9.3,6.6l0,0
											c2.3,4.3-2.8,8.3-5.1,11l0,0c-0.8,6.1-3.9,4.8-5.1,4.6l0,0c-1.9,1.9-1.3,4-1.6,6.7l0,0c-1.3,10-4.9,14.8-12.1,18.1l0,0
											c-1.9,3.9-1.3,10.8-2.9,15.1l0,0c-1.7,4.9-4.3,9.5-7.5,13.7l0,0c1.7-5.4,3.2-13.3,2-18.4l0,0c-1-1.2-1.7-2.6-2-4.1l0,0
											c-0.2,0.5-0.4,0.2-0.6,0l0,0c-0.1-0.2-0.2-0.3-0.4-0.3l0,0c0.3,6.1-1.2,12.1-4.1,17.4l0,0c-1.9,3.6-4,7.1-6.4,10.3l0,0
											c-1.1,1.7-2.6,3.1-4.3,4.1l0,0c-0.1-2.2,2-2.9,2.1-6.2l0,0c4.3-10,5.2-29.4-5.1-33.8l0,0c-1.6,1.9-3.5,5.2-6.2,4l0,0
											c-2.5,5-5.5,9.3-6.4,16.1l0,0c-1.6,0.3-1.5-0.8-2.3-1.3l0,0c-3.4,5.5-5.9,11.6-7.3,17.9l0,0c-0.3,0.1-0.7,0.1-1,0l0,0
											c-0.3-0.1-0.6-0.1-0.9,0.1l0,0c-2,8-2.8,16.2-2.3,24.4l0,0c2.4,0.7,7.8,5.9,8.5,6.5l0,0c1,0.5,8,9,12.4,13.2l0,0
											c2.8-4.7,3.1-13.5,2.6-18.3l0,0c1.2,1.1,2.2,2.4,2.8,3.9l0,0c3.8,8.2,3.8,21.5,1.6,29.2l0,0c5.7-3,9.3-18.1,7.6-24.5l0,0
											c3.8,2.3,5.5,9.5,5.4,15l0,0c-0.2,6.8-4.7,10.1-5.4,14.4l0,0c0.9,9,5.9,15.9,1.6,25l0,0c-1.7,3.6-8.4,8.5-8.4,12.3l0,0
											c-0.4-0.8-0.2,0-0.2,0.9l0,0c0,0.7,0,1.3-0.5,1.2l0,0c-1.7-2.6-2.2-5.9-1.1-8.8l0,0c-2.6,2.9-5.9,6.1-6.7,10.6l0,0
											c-0.6,3.8,1.7,6.8,1.3,10.4l0,0c-3.8-3.5-4.4-9.8-5.9-15.3l0,0c-4.2,5.2-9.8,9.7-8.2,19.5l0,0c-2.3-3.6-3-7.6-1.3-13.3
											l0,0c1.1-3.6,4.3-6.6,3.5-10.8l0,0c-0.9,2.6-3.5,3.2-5.9,4l0,0c-0.5,1-1,2.1-2.3,2.2l0,0c1.1-3.2,3.3-5.2,3.9-8.9l0,0
											c-3.2,1.7-7,3.8-11.4,3.3l0,0c-1.6,2.2-3.9,3.7-6.5,4.5l0,0c-0.3-1.4,1.3-1.1,2-1.7l0,0c3.4-3.1,4.9-10.4,3.7-15.8l0,0
											c-0.5,1.9-1.3,3.7-2.3,5.4l0,0c-0.8,1.5-1.4,4.1-3.5,4.2l0,0c1.3-6.3,1.1-12.8-0.6-19l0,0c-0.5,1.8-1.5,3.4-2.8,4.8l0,0
											c-1.1,1.3-2.5,3-4,3.1l0,0c0.9-5.8-1.2-11.6-5.6-15.6l0,0c-4.8,2.5-6.9,8.3-9.5,13.3l0,0c2.1,5.3,4.2,10.2,4.2,16.2l0,0
											c0,12.9-6.6,27.5-5.1,39l0,0c0.5,3.5,1.9,9.5,2.9,13.5l0,0c-1.5-2.8-2.8-5.8-3.8-8.8l0,0c-4.1-9.3-0.4-27.4,1.1-38.8l0,0
											c-0.3-0.3,0.3-11.2-1.5-14.2l0,0c-3.4,6.8-5.8,14-7.3,21.4l0,0c0.1-15.8,4.7-29.4,9.9-43.7l0,0
											c6.4-17.3,3.4-36.8-1.9-53.9l0,0c3.1,2.9,4.8,8.2,6.1,12.9l0,0c1.6,6,2.6,12.3,3,18.5l0,0c0.1,6.6-0.4,13.2-1.3,19.7l0,0
											c1-4.4,5.4-0.6,6.8,1.3l0,0c2.6,3.8,3.9,11.2,5.1,14.7l0,0c2.2-3.4,1.5-7.8,1-11.8l0,0c2.3-0.7,2.8,2.4,3.4,4l0,0
											c1.6,4.9,2.5,9.9,2.8,15l0,0c0.6-3,2.4-6.4,3.2-9.5l0,0c0.6-2.5,0.6-6.1,3.8-5l0,0c-1.4,9.6,0.8,16.3-1.5,24.2l0,0
											c4.1,0.3,6.7-3.4,8.2-5.9l0,0c1-1.7,1.5-4,2.7-4.3l0,0c2.1,2.8,0.2,8.8,0,11.9l0,0c1.2-2,2.3-4.2,3.2-6.4l0,0
											c0.7,0,1.5,0.2,2.1,0.7l0,0c-0.9,5.9-0.8,9.9-3.3,14l0,0c4.7-3.8,7.1-11.6,8.5-19.2l0,0c0.5-3,0.4-4.9,2.1-6.7l0,0
											c1.1-0.2,2.2,0.3,2.8,1.3l0,0c-0.2,2-0.5,4-1,6l0,0c-1.3,5.7-4.5,11.4-2.8,17.5l0,0c0.6-1.7,0.4-3.3,0.9-4.7l0,0
											c1.9-5,6.1-6.1,9-9.3l0,0c1-1.1,0.9-2.7,2.4-3.5l0,0c1.1,3.1-1.7,7.4-1.9,10.9l0,0c4.8-4.9,8.9-18,4.5-25.3l0,0
											c-1.2,0.6-2.5,0.8-3.8,0.5l0,0c-5.4,2.4-11.4,2.5-17.8,1.2l0,0c-2.6-1.8-4.8-4.4-7.2-5.7l0,0c-4-6.4-5.9-12.8-10.7-17.8
											l0,0c-0.2,0.6-1,0.5-1.6,0.7l0,0c-5-5-9.2-10.6-12.7-16.7l0,0c-0.3,0.4-0.3,1-1.1,0.7l0,0c-0.7-2.3-2.8-3.5-3.5-5.9l0,0
											c2.4-7.4,5.2-14.3,6.6-22.8l0,0c-0.2-1-1-2.1,0-2.6l0,0c0.7-0.4,1,0,1.2,0.6l0,0c0.2,0.5,0.5,1,1.1,0.6l0,0
											c-0.7-2.3,0.9-5.2,0.3-7.4l0,0c0.5,0,0.9,0.3,1.2,0.7l0,0c0.4,0.4,0.7,0.9,1.1,0.6l0,0c0.4-3.1-1-5.5-0.7-8l0,0
											c0.6-0.4,0.7,0,0.9,0.5l0,0c0.2,0.3,0.4,0.7,0.8,0.7l0,0c2.9-4.7,1.6-13.3,5.4-17.3l0,0c1.7,1.2,0.7,3.2,2.3,4.4l0,0
											c0.6-5.9,2.6-11.5,5.9-16.5l0,0c3.2-5.1,6.2-10.1,11.4-7.8l0,0c1-0.6,2.2-0.8,2.8-1.9l0,0c-1.6-0.5-3.5,0-4.4-0.9l0,0
											c4.6-1.2,13.3-0.5,17.7,0.1l0,0c-2.2,2.8-8.5,1-11.1,3.3l0,0c3.4,3.4,8,1.9,11.8,1.8l0,0c-0.2,0.5-1.4,1.3-1.2,1.5l0,0
											c2.9,0.4,5.9-0.1,8.6-1.4l0,0c0.2-0.9,1.3-2.5,2.2-1.7l0,0c0.5,1.1-1.5,2-1.7,4.1l0,0c5.3-0.4,7.8-3.3,11.1-6.5l0,0
											c0.3,1.4-1.1,1.7-0.5,2.6l0,0c3,1.1,6.4,0.7,9.1-1.1l0,0c4-3,4.4-10.1,7-14.2l0,0c0.6,5.9-2.5,12-4.6,17.1l0,0
											c5.6-2.1,5.2-11.1,7.5-17.1l0,0c-0.5-0.4-0.9-0.9-1.2-1.4l0,0c3.9-2.8,9.2-4,10.6-9.7l0,0c-9.4-9.2-21.1-15.6-34-18.4l0,0
											c-2.7-0.5-5.5-0.6-8.3-0.3l0,0c-2,0.2-4,0.2-6,0l0,0c-6.2-4.3-14.3-8.2-22-8.7l0,0c-2.9-0.2-5.7,0.2-7.6-1.2l0,0
											c-2.9-2-4-8.9-7-11.4l0,0c-13.4-11.1-33.2-12-36.8-16l0,0c-6.2-6.9-8.9-22.6-9.7-23.8l0,0c0.6,4.2,1.4,11.1-1.1,13.9l0,0
											c-1.5-13.7-9.8-25-18.8-32.3l0,0c2.6,4.1,6.9,10.9,6.3,16.1l0,0c-6-7.3-11.9-14.6-21.8-18.5l0,0c-0.6-0.4-0.1-0.6-0.5-0.8
											l0,0c-6.8-2.5-14.5-6-22.1-8.4l0,0c7,7.4,16.4,9.2,23.2,13.8l0,0c-3.4-0.7-6.8-1.7-10.1-3l0,0c-6.3-2.3-11.9-6-16.6-10.9
											l0,0c-1.6-1.8-2.5-4.1-4-5.9l0,0c-1.6-1.9-4-3.5-4.5-6.5l0,0C263.5,91.9,285.5,94.3,299.1,103.7 M339.3,136.2
											c-1.7,3.3-2.1,8.5,1,10.7l0,0C339.1,144,339.3,139.9,339.3,136.2 M412.2,234c-2.5,0.4-4.5,1.4-7.8,0.9l0,0
											c1.1,1.9,4.4,0.4,5.9,2.1l0,0C409.8,235.6,411.8,235.2,412.2,234 M398.2,234.4c-5.5-0.5-10.8,0.3-12.8,4.8l0,0
											c0.2,0.5,1.1,0.4,1.5,0.6l0,0c-0.1-0.6-0.7-1.4-0.1-1.9l0,0c1.3,0.2,2.5,0.8,3.6,1.6l0,0c2.5-2.7,5.9-5.9,9.5-2.1l0,0
											c1-1.5,3.4-1.9,4.4-2.5l0,0c-1.9-0.7-4-0.7-5.8,0l0,0C398.1,234.7,398.7,234.4,398.2,234.4 M428.3,238.7
											c-2.5-1.9-6.3-0.7-8.2-3.6l0,0c-3,0.5-6,1.2-8.9,2.2l0,0c4.6,5.5,6.1,17.1,3.1,26.7l0,0c2.8-4.1,4.7-8.9,5.4-13.9l0,0
											c0.8-5.1-0.2-9.3-0.2-13l0,0c1.8,0.5,1.6,2.8,2,4.4l0,0c1.1-0.3,1.6,0.2,3.4,0.3l0,0c0.2-1.5,0.2-3.2,1.9-3l0,0
											c0.4,1.3,0.8,4.4-0.4,5l0,0c0.6,3.8,1.9,8.1,1.9,11.5l0,0C430.2,250.8,431.9,241.4,428.3,238.7 M366,297
											c-0.6,0.2-2.3,0.1-1.7,0.9l0,0c-0.3,0.1-0.7,0-0.9-0.3l0,0c-0.1-0.2-0.4-0.4-0.7-0.3l0,0c0.4,2.5,4.1,4.4,5.2,7l0,0
											c7.1,5.3,12.5,12.4,15.8,20.6l0,0c0.9,2.3,3.3,6.2,5,9.9l0,0c4.1-2.4,6.1-7.3,8.4-11.7l0,0c-5.3-8.6-11.2-18-20.9-22.1
											l0,0c2.2,2.7,5.9,4.7,6.9,9l0,0C378.5,305.9,373.2,300,366,297 M401.2,337.5c4-6.4,5.7-19,3.3-27.2l0,0
											c-1.2,11.6-6.5,19.9-11.2,26.3l0,0c1.6,0.9,3.4,1.4,5.2,1.5l0,0C399.4,338.1,400.3,337.9,401.2,337.5 M415.9,315.7
											c-1.9,7.3-3.8,14.5-7.9,19.2l0,0C415.8,334.6,417.5,323,415.9,315.7 M408,339.5c-1.4-0.7-2.9,0.9-4.6,1l0,0
											c0.5,0.2,1,0.2,1.5,0.2l0,0C406.1,340.8,407.2,340.3,408,339.5"/>
									</g>
								</g>
							</g>
						</g>
						<g id="g254">
							<g id="g256">
								<g id="g262">
									<g id="g264">
										
											<radialGradient id="path272_00000021801368920941541130000012719547755050486671_" cx="-590.3316" cy="-217.2113" r="1.9" gradientTransform="matrix(-38.14 0 0 38.14 -22102.5898 8573.7803)" gradientUnits="userSpaceOnUse">
											<stop  offset="0" style="stop-color:#FAEA27"/>
											<stop  offset="1" style="stop-color:#EB5D1E"/>
										</radialGradient>
										<path id="path272" style="fill:url(#path272_00000021801368920941541130000012719547755050486671_);" d="M333.9,159.8
											c0.4-0.1,0.9-0.1,1.3,0l0,0c6.8,1.6,36.9,16.1,49.4,24.5l0,0c8.8-0.9,17.3,2.1,23.9,5.1l0,0c1.6,0.5,3.1,1.3,4.3,2.5l0,0
											c-0.2,0.9-1.3,0.9-2.3,0.8l0,0c-0.6-0.1-1.2,0-1.7,0.2l0,0c-6.1-3.7-14-7.9-22.7-7.2l0,0c0.7,0.3,13.6,8.2,7.6,10.7l0,0
											c-0.8-0.2-0.8-1.1-2-0.9l0,0c-3.2-4.4-7.4-7.9-12.3-10.3l0,0c-5.7-6.3-14-10.3-21.8-14.8l0,0c1.2,1.9,3,3.3,4.1,5.4l0,0
											c-0.5,1.9-1.9,2.5-2.7,4l0,0c0.5,1.4,0.8,2.8,1,4.3l0,0c1.9-0.6,5.7-1.8,7.2-1l0,0c0,1.3-2.2,1.3-2.8,1.1l0,0
											c-3.8,1.2-6.6,2.3-10.9,3.8l0,0c-1.3-2.5-4.3-3.8-7.6-4.9l0,0c-4.4-1.1-9-1.3-13.5-0.6l0,0c0.4-1.7,2.5-1.5,4.1-1.8l0,0
											c5.3-1.8,10.8-2.9,16.4-3.2l0,0c0.8-1.1,2.7-0.8,3.6-1.8l0,0c1.6-3.4-2.9-6.2-3.8-8.3l0,0c-5.5-2.7-11.1-5-16.9-7l0,0
											c-1.6-0.6-3.6-0.8-4.8-2.2l0,0c1.2,0.2,2.3,0.5,2.8,1.3 M355.2,179.7c0.2,0.4,0.3,0.9,0.2,1.3l0,0h1.1l0,0
											C356.5,180.1,356.1,179.6,355.2,179.7L355.2,179.7 M351.4,180.4c-1.7,0.7-4.5,0-5.7,1.4l0,0c3.5,0.4,6.7,1.8,9.5,4l0,0
											c1.2,0,1.9-0.9,3-1.1l0,0c0.1-0.9-0.1-1.9-0.6-2.7l0,0c-0.7,0.8-1.8,1.3-2.9,1.3l0,0c-1.6,0.2-3.1-1-3.3-2.6
											C351.4,180.5,351.4,180.4,351.4,180.4"/>
									</g>
								</g>
							</g>
						</g>
						<g id="g274">
							<g id="g276">
								<g id="g282">
									<g id="g284">
										
											<radialGradient id="path292_00000168104166994572103470000004383809047333024151_" cx="-590.3387" cy="-217.2203" r="1.9" gradientTransform="matrix(-38.14 0 0 38.14 -22102.291 8573.3994)" gradientUnits="userSpaceOnUse">
											<stop  offset="0" style="stop-color:#FAEA27"/>
											<stop  offset="1" style="stop-color:#EB5D1E"/>
										</radialGradient>
										<path id="path292" style="fill:url(#path292_00000168104166994572103470000004383809047333024151_);" d="M404,198.1
											c2.5-0.6,6.1-0.2,7.5,2.5l0,0c-2.6,3.4-6.4-0.7-8-2.5l0,0c-2,1.6-5.2-1.4-6.7-2.7l0,0c0.4,0,0.7,0,1.1,0l0,0
											C400.6,195.4,403.6,196.7,404,198.1"/>
									</g>
								</g>
							</g>
						</g>
						<g id="g294">
							<g id="g296">
								<g id="g302">
									<g id="g304">
										
											<radialGradient id="path312_00000065065922791149048180000013291112937097223354_" cx="-591.0961" cy="-216.8815" r="1.9" gradientTransform="matrix(-36.36 0 0 36.36 -21087.4805 8179.2007)" gradientUnits="userSpaceOnUse">
											<stop  offset="0" style="stop-color:#FAEA27"/>
											<stop  offset="1" style="stop-color:#EB5D1E"/>
										</radialGradient>
										<path id="path312" style="fill:url(#path312_00000065065922791149048180000013291112937097223354_);" d="M327.3,281.3
											c-0.5,9,0.6,18,3.1,26.7l0,0c-0.3,3.8,2.1,5.6,2.4,9.5l0,0c0,0.4,0.5,0.9,0.2,0.8l0,0c-4.6-6.7-6.9-16.4-7.7-25.2l0,0
											c-0.8-7.3-0.5-14.7,1-21.9l0,0c0.5-2.2,0.6-5.4,2.9-6.6l0,0C328.9,269.9,327.6,275.3,327.3,281.3"/>
									</g>
								</g>
							</g>
						</g>
						<g id="g314">
							<g id="g316">
								<g id="g322">
									<g id="g324">
										
											<radialGradient id="path332_00000163778756166660397920000016449539583068391057_" cx="-590.291" cy="-217.1599" r="1.9" gradientTransform="matrix(-38.14 0 0 38.14 -22104.3105 8575.96)" gradientUnits="userSpaceOnUse">
											<stop  offset="0" style="stop-color:#FAEA27"/>
											<stop  offset="1" style="stop-color:#EB5D1E"/>
										</radialGradient>
										<path id="path332" style="fill:url(#path332_00000163778756166660397920000016449539583068391057_);" d="M287.7,158.4
											c2.8,1.4,5.6,2.9,8.2,4.6l0,0c3.2,2.1,6.3,4.5,9.1,7.2l0,0c4.9,5.4,7,4.3,6.6,5.5l0,0c-0.7,0.7-1.5,1.1-2.5,1.1l0,0
											c-3.3,0.4-6.6-1-8.7-3.6l0,0c-4.6-5.5-12.9-12.1-20-14.6l0,0c-6.5-2.3-12.5-1.1-18.5,0l0,0c-3.6,0.8-7.3,1.2-10.9,1.3l0,0
											c6.8-2.9,14.1-4.4,21.4-4.3l0,0C277.7,155.4,282.9,156.4,287.7,158.4"/>
									</g>
								</g>
							</g>
						</g>
						<g id="g334">
							<g id="g336">
								<g id="g342">
									<g id="g344">
										
											<radialGradient id="path352_00000154417164391570905770000004389749994183959729_" cx="-590.3262" cy="-217.2045" r="1.9" gradientTransform="matrix(-38.14 0 0 38.14 -22102.8203 8574.0693)" gradientUnits="userSpaceOnUse">
											<stop  offset="0" style="stop-color:#FAEA27"/>
											<stop  offset="1" style="stop-color:#EB5D1E"/>
										</radialGradient>
										<path id="path352" style="fill:url(#path352_00000154417164391570905770000004389749994183959729_);" d="M428.3,196.2
											c5.1,0.8,21.4,4.1,19.7,11.2l0,0c-0.4,1.7-4.5,3.8-6.9,3.7l0,0c-3.2-5.5-4.6-12.4-14.1-12.5l0,0c-0.7-3.2-3.1-4.9-5-7l0,0
											c0.3,0,0.3-0.4,0.6-0.5l0,0C424.1,193,427.8,194.1,428.3,196.2"/>
									</g>
								</g>
							</g>
						</g>
						<g id="g354">
							<g id="g356">
								<g id="g362">
									<g id="g364">
										
											<radialGradient id="path372_00000171717426418662847180000016967540048481847976_" cx="-590.4025" cy="-217.277" r="1.9" gradientTransform="matrix(-38.14 0 0 38.14 -22100.3906 8570.999)" gradientUnits="userSpaceOnUse">
											<stop  offset="0" style="stop-color:#FAEA27"/>
											<stop  offset="1" style="stop-color:#EB5D1E"/>
										</radialGradient>
										<path id="path372" style="fill:url(#path372_00000171717426418662847180000016967540048481847976_);" d="M421.7,205.4
											c-3.2,2.4-8.2,0-8.2-3.3l0,0c0.3-0.1,0.5-0.2,0.8-0.2l0,0C417.1,202.3,419.6,203.5,421.7,205.4"/>
									</g>
								</g>
							</g>
						</g>
						<g id="g374">
							<g id="g376">
								<g id="g382">
									<g id="g384">
										
											<radialGradient id="path392_00000006688249931667981910000000756913503295249824_" cx="-590.337" cy="-217.2184" r="1.9" gradientTransform="matrix(-38.14 0 0 38.14 -22102.3594 8573.4795)" gradientUnits="userSpaceOnUse">
											<stop  offset="0" style="stop-color:#FAEA27"/>
											<stop  offset="1" style="stop-color:#EB5D1E"/>
										</radialGradient>
										<path id="path392" style="fill:url(#path392_00000006688249931667981910000000756913503295249824_);" d="M378.1,229.9
											c-1.3,0.9-3.8,1.1-3.4,3.2l0,0c-2.8,0.9-2.8,3-3.1,5.6l0,0c-8.1,7.5-11.9,19.9-17.7,29l0,0c0.3,0,0.3-0.2,0.6-0.2l0,0
											c-1.3,1.3-1.9,3.2-3.2,3.8l0,0c4.3-12.5,8.9-24.1,15.8-34.4l0,0c0-0.5,0.1-1.1,0.1-1.6l0,0c2.7-2.7,5.8-4.8,9.3-6.4l0,0
											C377.2,228.9,378.1,229.1,378.1,229.9"/>
									</g>
								</g>
							</g>
						</g>
					</g>
				</g>
			</g>
		</g>
	</g>
</g>
<g id="Layer_2">
	<text transform="matrix(1 0 0 1 127.3438 374.7969)" class="st21 st22 st23">Claym</text>
</g>
</svg>
