<?xml version="1.0" encoding="utf-8"?>
<!-- Generator: Adobe Illustrator 25.4.1, SVG Export Plug-In . SVG Version: 6.00 Build 0)  -->
<svg version="1.1" xmlns="http://www.w3.org/2000/svg" xmlns:xlink="http://www.w3.org/1999/xlink" x="0px" y="0px"
	 viewBox="0 0 500 500" style="enable-background:new 0 0 500 500;" xml:space="preserve">
<style type="text/css">
	.st0{display:none;}
	.st1{display:inline;stroke:#231F20;stroke-miterlimit:10;}
	.st2{opacity:0.4;}
	.st3{fill:url(#path32_00000125600759064376838810000001756623199570668686_);}
	.st4{fill:url(#path52_00000145745048612918327510000017573785990478955413_);}
	.st5{fill:url(#path72_00000026150532653342949300000007546623764304670112_);}
	.st6{fill:url(#path92_00000030465223486400740160000004761025030213272507_);}
	.st7{fill:url(#path112_00000037676034277974519800000005913774717450821556_);}
	.st8{fill:url(#path132_00000133497411294645151410000010033534090710689692_);}
	.st9{fill:url(#path152_00000072241253630313845200000017290133954616822669_);}
	.st10{fill:url(#path172_00000162323106553215124630000002255712700111325592_);}
	.st11{fill:url(#path192_00000156555778213492262320000005952443630704297887_);}
	.st12{fill:url(#path212_00000117666433921183515270000002110921276473660594_);}
	.st13{fill:url(#path232_00000010998021089949534430000000168135182653905599_);}
	.st14{fill:url(#path252_00000134218060634914398570000004765765188092646069_);}
	.st15{fill:url(#path272_00000116925157271553940470000011648675993018555276_);}
	.st16{fill:url(#path292_00000136398094897163266820000013701562628326535553_);}
	.st17{fill:url(#path312_00000078735657606283146050000004152762676380808842_);}
	.st18{fill:url(#path332_00000168795888800217041200000010496712629518824600_);}
	.st19{fill:url(#path352_00000129177901334502714630000002921350288468937372_);}
	.st20{fill:url(#path372_00000018225550935905527020000002508715042352213653_);}
	.st21{fill:url(#path392_00000111189090786407017180000003996501142433668248_);}
	.st22{enable-background:new    ;}
	.st23{fill:#D55140;stroke:#FFFFFF;stroke-miterlimit:10;}
	.st24{fill:#FFFFFF;stroke:#231F20;stroke-miterlimit:10;}
</style>
<g id="back" class="st0">
	<rect class="st1" width="500" height="500"/>
</g>
<g id="leul">
	<g class="st2">
		<g id="g14">
			<g id="g16">
				<g id="g22">
					<g id="g24">
						
							<radialGradient id="path32_00000063635322490904344340000005613845812844215690_" cx="-455.3838" cy="-385.7181" r="0.9798" gradientTransform="matrix(-38.14 0 0 38.14 -17170.8379 14950.3291)" gradientUnits="userSpaceOnUse">
							<stop  offset="0" style="stop-color:#FAEA27"/>
							<stop  offset="1" style="stop-color:#EB5D1E"/>
						</radialGradient>
						<path id="path32" style="fill:url(#path32_00000063635322490904344340000005613845812844215690_);" d="M134.7,185.2
							c3.7,1.9,8.2,2.3,12.2,3.2l0,0c-0.4,0.8-1.8,0.7-3.1,0.7l0,0c-0.5-0.1-1-0.1-1.4,0l0,0c3.9,1.9,7.2,4.9,9.5,8.6l0,0
							c1.5,1,2.2,2.8,3,4.3l0,0c0.5,1,1.4,2,1,2.9l0,0c-0.9-0.3-5.2-7.5-12.4-9.1l0,0c1,1.2,2,2.6,2.9,3.9l0,0
							c1.3,2.4,2.4,4.9,3.2,7.5l0,0c0.9,2.9,1.1,6.1,1.7,8.4l0,0c0.2,0.8,0.8,1.7,0.5,2.5l0,0c-0.7-0.3-1-1.2-1.3-1.9l0,0
							c-1.2-2.3-2.2-4.9-4.1-6.5l0,0c0,0.2,0.1,0.2,0.1,0.3l0,0c3.2,6.6,1.7,17.8-0.2,25l0,0c-0.3-0.2-0.3,0.7-0.6,0.9l0,0
							c0.3-5.9,2.1-11.8,1.5-17.3l0,0c-0.5-4.5-2.1-8.9-4.5-12.8l0,0c1.4-0.1,2.7,1.1,3.7,2.1l0,0c1.4,1.5,2.3,3.8,3.6,4.8l0,0
							c-1.4-6.9-5.2-13.1-10.6-17.6l0,0c-0.7-0.6-5.9-2.3-5.3-4.2l0,0c0.2,0.4,0.5,0.6,0.9,0.8l0,0c2.1,0.8,4.7,1,7,1.7l0,0
							c2.8,0.8,4.9,2.3,7,3.1l0,0c-1.8-3-5.4-5.1-7.4-7.4l0,0c-3.4-0.3-6.5-2-8.8-4.5l0,0c0.1-0.1,0.3-0.1,0.4-0.1l0,0
							C133.7,184.2,134.1,184.9,134.7,185.2"/>
					</g>
				</g>
			</g>
		</g>
		<g id="g34">
			<g id="g36">
				<g id="g42">
					<g id="g44">
						
							<radialGradient id="path52_00000070116242776018963820000000835772012541993873_" cx="-455.3836" cy="-385.7181" r="0.9798" gradientTransform="matrix(-38.14 0 0 38.14 -17170.627 14950.0596)" gradientUnits="userSpaceOnUse">
							<stop  offset="0" style="stop-color:#FAEA27"/>
							<stop  offset="1" style="stop-color:#EB5D1E"/>
						</radialGradient>
						<path id="path52" style="fill:url(#path52_00000070116242776018963820000000835772012541993873_);" d="M173.2,191.1
							c0.2,0,2.6,0.7,3.6,1l0,0c0.6,0.2,1.1,0.4,1.7,0.6l0,0c0.1,0,0-0.3,0.2-0.3l0,0c0.7,0.2,1.4,0.7,2.1,0.9l0,0
							c2.1,0.6,4.7,1,6.2,2.6l0,0c0.5,0.1,1.2,0,1.2,0.5l0,0c-0.6,0.6-1.8,0.3-2.5,0.2l0,0c-2.2-0.3-4.6-1.4-6.7-2.2l0,0
							c-1-0.4-2.3-0.9-3.5-1.2l0,0c-1.9-0.5-3.9-1-5.6-1.4l0,0c-7.2-1.6-14.5-2.3-21.8-2.2l0,0c2.3-0.3,4.5-0.4,6.8-0.4l0,0
							C161.2,189.1,167.2,189.8,173.2,191.1"/>
					</g>
				</g>
			</g>
		</g>
		<g id="g54">
			<g id="g56">
				<g id="g62">
					<g id="g64">
						
							<radialGradient id="path72_00000096755812339134849910000004077609407526368415_" cx="-455.3936" cy="-385.7216" r="0.9798" gradientTransform="matrix(-38.13 0 0 38.13 -17168.0781 14948.7002)" gradientUnits="userSpaceOnUse">
							<stop  offset="0" style="stop-color:#FAEA27"/>
							<stop  offset="1" style="stop-color:#EB5D1E"/>
						</radialGradient>
						<path id="path72" style="fill:url(#path72_00000096755812339134849910000004077609407526368415_);" d="M205,198.6
							c0,0.2-0.3,0.2-0.3,0.4l0,0c-0.6-0.4-1.4-0.6-1.7-1.2l0,0h0.5l0,0C204.2,197.7,204.8,198,205,198.6"/>
					</g>
				</g>
			</g>
		</g>
		<g id="g74">
			<g id="g76">
				<g id="g82">
					<g id="g84">
						
							<radialGradient id="path92_00000015337545850223238820000013157155394637113248_" cx="-455.3919" cy="-385.7161" r="0.9798" gradientTransform="matrix(-38.14 0 0 38.14 -17167.748 14946.4287)" gradientUnits="userSpaceOnUse">
							<stop  offset="0" style="stop-color:#FAEA27"/>
							<stop  offset="1" style="stop-color:#EB5D1E"/>
						</radialGradient>
						<path id="path92" style="fill:url(#path92_00000015337545850223238820000013157155394637113248_);" d="M192.9,197.9
							c-0.2,0-0.2,0.2-0.2,0.4l0,0c-0.7,0.1-1.4,0.2-2.1,0.1l0,0c-0.2-0.6-1-0.7-1.1-1.3l0,0c0.4-0.2,0.7-0.3,1.1-0.3l0,0
							C191.5,196.7,192.4,197.1,192.9,197.9"/>
					</g>
				</g>
			</g>
		</g>
		<g id="g94">
			<g id="g96">
				<g id="g102">
					<g id="g104">
						
							<radialGradient id="path112_00000176729700535031272430000006150566843308627329_" cx="-455.3827" cy="-385.7134" r="0.9798" gradientTransform="matrix(-38.15 0 0 38.15 -17171.6875 14949.5576)" gradientUnits="userSpaceOnUse">
							<stop  offset="0" style="stop-color:#FAEA27"/>
							<stop  offset="1" style="stop-color:#EB5D1E"/>
						</radialGradient>
						<path id="path112" style="fill:url(#path112_00000176729700535031272430000006150566843308627329_);" d="M196.7,199.2
							c-0.4,1.3-1.9,0.8-3,0.7l0,0c-0.1-0.5,0.3-0.3,0.3-0.5l0,0c-0.2-0.3-0.8-0.3-0.6-0.9l0,0c0.3-0.2,0.6-0.4,1-0.4l0,0
							C195.2,198.2,196,198.6,196.7,199.2"/>
					</g>
				</g>
			</g>
		</g>
		<g id="g114">
			<g id="g116">
				<g id="g122">
					<g id="g124">
						
							<radialGradient id="path132_00000002365657685668642160000001980477099993213329_" cx="-455.3837" cy="-385.7148" r="0.9798" gradientTransform="matrix(-38.15 0 0 38.15 -17173.668 14952.0576)" gradientUnits="userSpaceOnUse">
							<stop  offset="0" style="stop-color:#FAEA27"/>
							<stop  offset="1" style="stop-color:#EB5D1E"/>
						</radialGradient>
						<path id="path132" style="fill:url(#path132_00000002365657685668642160000001980477099993213329_);" d="M200,201.1
							c0,0.4-0.4,0.4-0.4,0.8l0,0c-0.5-0.5-1.2-0.2-1.4-0.9l0,0c0.2-0.2,0.4-0.3,0.6-0.3l0,0C199.2,200.7,199.6,200.8,200,201.1"/>
					</g>
				</g>
			</g>
		</g>
		<g id="g134">
			<g id="g136">
				<g id="g142">
					<g id="g144">
						
							<radialGradient id="path152_00000063615006658036006110000012242413584253539252_" cx="-455.3836" cy="-385.718" r="0.9798" gradientTransform="matrix(-38.14 0 0 38.14 -17170.5273 14949.9385)" gradientUnits="userSpaceOnUse">
							<stop  offset="0" style="stop-color:#FAEA27"/>
							<stop  offset="1" style="stop-color:#EB5D1E"/>
						</radialGradient>
						<path id="path152" style="fill:url(#path152_00000063615006658036006110000012242413584253539252_);" d="M185.2,201.7
							c0.2,0,0.5,0,0.8,0l0,0c0.7-0.1,1.4,0,2.1,0.1l0,0c-0.1,0.8-0.8,1-1.3,1.2l0,0c-1-0.7-2.1-1.2-3.3-1.3l0,0
							c0.3-0.5,1-0.5,1.7-0.6l0,0C185.4,201.4,184.9,201.7,185.2,201.7"/>
					</g>
				</g>
			</g>
		</g>
		<g id="g154">
			<g id="g156">
				<g id="g162">
					<g id="g164">
						
							<radialGradient id="path172_00000032620506053391003210000012209997302820380348_" cx="-455.3836" cy="-385.718" r="0.9798" gradientTransform="matrix(-38.14 0 0 38.14 -17170.4883 14949.8896)" gradientUnits="userSpaceOnUse">
							<stop  offset="0" style="stop-color:#FAEA27"/>
							<stop  offset="1" style="stop-color:#EB5D1E"/>
						</radialGradient>
						<path id="path172" style="fill:url(#path172_00000032620506053391003210000012209997302820380348_);" d="M192,203.1
							c-0.3,1.1-1.4,1-2.3,1.2l0,0c-0.4-0.6-1.1-1-1.3-1.6h0.5C190,202.8,191,202.9,192,203.1"/>
					</g>
				</g>
			</g>
		</g>
		<g id="g174">
			<g id="g176">
				<g id="g182">
					<g id="g184">
						
							<radialGradient id="path192_00000091709413084125178010000012396358542750505139_" cx="-455.3839" cy="-385.7184" r="0.9798" gradientTransform="matrix(-38.14 0 0 38.14 -17171.0879 14950.6494)" gradientUnits="userSpaceOnUse">
							<stop  offset="0" style="stop-color:#FAEA27"/>
							<stop  offset="1" style="stop-color:#EB5D1E"/>
						</radialGradient>
						<path id="path192" style="fill:url(#path192_00000091709413084125178010000012396358542750505139_);" d="M183.7,203.1
							c0.2,0,0.2,0.1,0.3,0.2l0,0l-0.1,1.1l0,0c-1,1.1-2.2,0.3-3.1,0.3l0,0c-2.5-0.1-5.1,0.6-7.4,0.9l0,0c-4.5,0.6-8.9,1.5-13.2,2.9
							l0,0c-2.1,0.8-4.2,1.3-6.4,1.8l0,0c8.6-3.8,18.3-7.1,29.5-7.1L183.7,203.1"/>
					</g>
				</g>
			</g>
		</g>
		<g id="g194">
			<g id="g196">
				<g id="g202">
					<g id="g204">
						
							<radialGradient id="path212_00000109749078025751346960000007864851024823943863_" cx="-455.3926" cy="-385.717" r="0.9798" gradientTransform="matrix(-38.14 0 0 38.14 -17169.0078 14948.0186)" gradientUnits="userSpaceOnUse">
							<stop  offset="0" style="stop-color:#FAEA27"/>
							<stop  offset="1" style="stop-color:#EB5D1E"/>
						</radialGradient>
						<path id="path212" style="fill:url(#path212_00000109749078025751346960000007864851024823943863_);" d="M155.5,216.2
							c0,0.2,0.2,0.2,0.1,0.4l0,0c-3.9,6.4-4.1,17.3-5.1,25.1l0,0c-0.8-5.4-0.3-14,1.2-20.2l0,0c0.4-1.7,2-5.3,3.5-5.3l0,0
							C155.3,216.2,155.4,216.2,155.5,216.2"/>
					</g>
				</g>
			</g>
		</g>
		<g id="g214">
			<g id="g216">
				<g id="g222">
					<g id="g224">
						
							<radialGradient id="path232_00000006683476648992844610000005399122730560928650_" cx="-455.3837" cy="-385.7181" r="0.9798" gradientTransform="matrix(-38.14 0 0 38.14 -17170.6973 14950.0986)" gradientUnits="userSpaceOnUse">
							<stop  offset="0" style="stop-color:#FAEA27"/>
							<stop  offset="1" style="stop-color:#EB5D1E"/>
						</radialGradient>
						<path id="path232" style="fill:url(#path232_00000006683476648992844610000005399122730560928650_);" d="M119.5,141.2
							c12.7,3.4,24.2,8.8,26.9,21.6l0,0c-1.3-1.1-1.8-2.9-2.6-4.4l0,0c-0.5-0.8-1-1.4-1.4-2.2l0,0c-0.5-0.6-0.9-1.3-1.2-2.2l0,0
							c-0.5-1.1-3.1-3.2-4.6-4.1l0,0c-12.8-7.4-27-8.4-31.3-12.9l0,0c0.7,1.6,2.6,2.8,4,4l0,0c19.9,3.9,27.6,19.6,28.7,21.5l0,0
							c-3.3-2.2-13.6-21.4-41.9-21.5l0,0c-3.6,0-8.1-0.1-11.4-2l0,0c2.1,3,7.8,2.4,10.9,4.6l0,0c-5.3-1.2-13.5-1.5-19-2.9l0,0
							c2,1.9,5.6,3.1,8.6,4.5l0,0c2.9,1.3,6.9,1.5,10.5,2.1l0,0c22.3,3.6,28.1,15.8,27.8,16.7l0,0c-2.1-1.6-6-8.9-22.8-13.1l0,0
							c-6-1.5-12.3-1.3-18.5-1.2l0,0c-11.3,0.1-22.3,5.1-33.6,2.2l0,0c4.6,3,8.6,4.1,14.5,5.9l0,0c23.3-5.9,36.9,3.6,37.7,4.7l0,0
							c-0.7,0.2-6.4-2.3-8.5-2.7l0,0c-19-4-33.6,0.7-47.4,5.5l0,0c-4.6,1.7-9.5,2.5-14.4,2.5l0,0c5.6,4.2,13.9,6.9,22.2,6.9l0,0
							c5.2-2.5,10.7-4.3,16.4-5.5l0,0c3.8-0.9,7.6-1.3,11.4-1.4l0,0c0.9,0,1.8,0,2.7,0l0,0c3.1-0.1,6.5-0.2,9.1,0.9l0,0
							c-0.7,0.6-2.4,0.3-3.1,0.3l0,0c-8.5-0.3-17.1,0.9-25.2,3.7l0,0c-8.8,3.1-17,7.6-24.4,13.2l0,0c-5.5,4.2-10.3,10.7-17.7,12.7
							l0,0c1.2,0.2,2.3,0.4,3.5,0.4l0,0c3,0.1,6.5,0,8.8-1l0,0c1.9-0.8,14.7-10,15.5-10.4l0,0c-0.8,1.6-18,14.1-25.6,19l0,0
							c0.8,0.4,11.8-3.9,17.1-6.7l0,0c0,0.6-3.8,3.8-5.2,5.3l0,0c-3.6,3.8-6.4,8.8-8.9,13.6l0,0c-3.7,7.2-7,16.4-11.7,22l0,0
							c1.3-0.1,4.5-2.4,5.3-2.9l0,0c0.7-0.5,1.5-1.5,2.3-1.2l0,0c0.2,0.6-0.6,1-1,1.5l0,0c-1.1,1.7-1.9,4.4-2.5,7l0,0
							c-1.3,5.3-2.2,10.3-3.8,14.9l0,0c1.5-1.7,2.8-3.6,4.4-5.2l0,0c1-0.9,4.2-4.5,4.9-2.7l0,0c-0.2,1.4-0.5,2.9-0.9,4.3l0,0
							c-1,3.4-2.3,6.8-3.9,9.9l0,0c-1.1,2.3-2.7,4.8-4,7.1l0,0c-1.7,2.7-6.1,8.2-6.4,7.8l0,0c1.7-2,3-4.9,4.5-6.3l0,0
							c2.5-4.8,6.3-12,7.4-18.6l0,0c-4.3,3.2-6.1,7.7-9.9,11.8l0,0c-0.8,0.9-1.5,1.9-1.9,3l0,0c-0.3-1.2,1.2-3.5,1.8-4.7l0,0
							c0.5-0.9,0.8-2,0.9-3l0,0c2.6-6.9,3.1-13.9,5.5-21.8l0,0c-3,1.4-6.2,2.5-9.5,2.9l0,0c-1.1,0.2-2.3,0.6-3.1,0.2l0,0
							c0.6-0.2,1.2-0.5,1.7-0.8l0,0c10.8-9.4,15.9-25.1,24-36.8l0,0c-4.4,1.9-12.8,3.6-17.3,1.5l0,0c2.6-0.2,5.1-0.8,7.5-1.9l0,0
							c1.8-1,3.5-2.1,5.1-3.3l0,0c1.7-1,3.2-2.1,4.7-3.3l0,0c-2.8,1.1-14.4,3.6-21.2-2.4l0,0c-0.4-0.3-1-0.6-1.3-1.1l0,0
							c11,3.1,27.7-11.4,29.8-13l0,0c1.3-1,2.5-2,2.8-2.2l0,0c1-0.6,1.8-1.3,2.8-2l0,0c2-1.3,4.4-2.1,6.3-3.7l0,0
							c-2.1,0.2-4.1-0.1-6.1-0.6l0,0c-2-0.2-4-0.6-5.9-1.2l0,0c-7.8-2.7-13.2-9.1-20-12.4l0,0c2.7-0.5,6.3,2.3,14.4,2.8l0,0
							c8.4,0.5,12.7-1.7,15.1-2.4l0,0c1.4-0.5,9.6-2.9,11.8-3.2l0,0c-14.9-2.8-20-13.9-20-13.9l0,0c1,1,2.1,1.9,3.2,2.5l0,0
							c2.9,1.5,7,2.1,10.3,2.5l0,0c2.5,0.3,7.8-0.5,13.9-1.3l0,0c5.7-0.9,11.5-1.3,17.3-1.4l0,0c-3-1.1-5.9-2.4-8.7-4l0,0
							c-3.2-2-6.4-4.8-7.6-8.3l0,0c3.9,3.9,12.4,5.5,16.4,6.1l0,0c-2.5-2.1-4.9-3.5-6-7.1l0,0c7.3,5.8,17.9,4.9,27.8,6.5l0,0
							c-3.2-3-5.9-6.4-8.1-10.3l0,0C98.4,130,107.9,138.4,119.5,141.2"/>
					</g>
				</g>
			</g>
		</g>
		<g id="g234">
			<g id="g236">
				<g id="g242">
					<g id="g244">
						
							<radialGradient id="path252_00000055709407001730483950000016645982008758835605_" cx="-455.3838" cy="-385.7181" r="0.9798" gradientTransform="matrix(-38.14 0 0 38.14 -17170.9082 14950.4287)" gradientUnits="userSpaceOnUse">
							<stop  offset="0" style="stop-color:#FAEA27"/>
							<stop  offset="1" style="stop-color:#EB5D1E"/>
						</radialGradient>
						<path id="path252" style="fill:url(#path252_00000055709407001730483950000016645982008758835605_);" d="M138.8,143.5
							c-1.5-1.9-4.1-3.5-4.6-5.9l0,0c2.5,2.4,5.9,4.1,8.6,6.6l0,0c2.8,2.5,4.8,5.5,7,8.4l0,0c-0.5-3.7-3.6-5.9-5.1-8.4l0,0
							c3.4,1.9,6.2,4.6,8.2,7.9l0,0c2.2,2.9,2.4,7.1,4.5,10.2l0,0c1.7-2.2,0.4-4.6-0.6-6.6l0,0c5.1,2.1,3.6,9.6,12,12.5l0,0
							c1.3,0.5,2.9,1.3,4.3,2l0,0c1.7,0.8,3.5,1.4,4.6,2.5l0,0c0.7,0.6,2.8,3.6,3.3,4.2l0,0c0.5,0.7,0.9,1.5,1.3,2l0,0
							c0.7,0.8,1.6,0.7,2.6,0.6l0,0c0.5-0.1,1.1-0.1,1.6-0.1l0,0c3.7,0.4,7,3.7,12.1,4.4l0,0c0.4,0.1,0.9,0.1,1.3,0.1l0,0
							c0.4-0.1,0.8-0.1,1.3,0l0,0c1.8,0.3,3.6,0.8,5.4,1.4l0,0c3.1,1,6.2,2.3,9.1,3.9l0,0c1.8,0.9,4.2,2.3,4.8,3.4l0,0
							c1.2,2.2-1.4,4.3-2.6,5.7l0,0c-0.4,3.1-2,2.5-2.6,2.4l0,0c-1,1-0.7,2.1-0.8,3.5l0,0c-0.7,5.2-2.5,7.6-6.2,9.3l0,0
							c-1,2-0.7,5.6-1.5,7.8l0,0c-0.9,2.5-2.2,4.9-3.9,7.1l0,0c0.9-2.8,1.7-6.9,1-9.5l0,0c-0.5-0.6-0.9-1.3-1-2.1l0,0
							c-0.1,0.3-0.2,0.1-0.3,0l0,0c-0.1-0.1-0.1-0.2-0.2-0.2l0,0c0.2,3.1-0.6,6.2-2.1,9l0,0c-1,1.9-2.1,3.7-3.3,5.3l0,0
							c-0.6,0.9-1.3,1.6-2.2,2.1l0,0c-0.1-1.1,1-1.5,1.1-3.2l0,0c2.2-5.2,2.7-15.2-2.6-17.4l0,0c-0.8,1-1.8,2.7-3.2,2.1l0,0
							c-1.3,2.6-2.8,4.8-3.3,8.3l0,0c-0.8,0.2-0.8-0.4-1.2-0.7l0,0c-1.8,2.8-3,6-3.8,9.2l0,0c-0.2,0.1-0.4,0.1-0.5,0l0,0
							c-0.2-0.1-0.3-0.1-0.5,0.1l0,0c-1,4.1-1.4,8.4-1.2,12.6l0,0c1.2,0.4,4,3,4.4,3.4l0,0c0.5,0.3,4.1,4.6,6.4,6.8l0,0
							c1.4-2.4,1.6-7,1.3-9.4l0,0c0.6,0.6,1.1,1.2,1.4,2l0,0c2,4.2,2,11.1,0.8,15.1l0,0c2.9-1.5,4.8-9.3,3.9-12.6l0,0
							c2,1.2,2.8,4.9,2.8,7.7l0,0c-0.1,3.5-2.4,5.2-2.8,7.4l0,0c0.5,4.6,3,8.2,0.8,12.9l0,0c-0.9,1.9-4.3,4.4-4.3,6.3l0,0
							c-0.2-0.4-0.1,0-0.1,0.5l0,0c0,0.4,0,0.7-0.3,0.6l0,0c-0.9-1.3-1.1-3-0.6-4.5l0,0c-1.3,1.5-3,3.1-3.5,5.5l0,0
							c-0.3,2,0.9,3.5,0.7,5.4l0,0c-2-1.8-2.3-5.1-3-7.9l0,0c-2.2,2.7-5.1,5-4.2,10.1l0,0c-1.2-1.9-1.5-3.9-0.7-6.9l0,0
							c0.6-1.9,2.2-3.4,1.8-5.6l0,0c-0.5,1.3-1.8,1.7-3,2.1l0,0c-0.3,0.5-0.5,1.1-1.2,1.1l0,0c0.6-1.7,1.7-2.7,2-4.6l0,0
							c-1.7,0.9-3.6,2-5.9,1.7l0,0c-0.8,1.1-2,1.9-3.4,2.3l0,0c-0.2-0.7,0.7-0.6,1-0.9l0,0c1.8-1.6,2.5-5.4,1.9-8.1l0,0
							c-0.3,1-0.7,1.9-1.2,2.8l0,0c-0.4,0.8-0.7,2.1-1.8,2.2l0,0c0.7-3.2,0.6-6.6-0.3-9.8l0,0c-0.3,0.9-0.8,1.8-1.4,2.5l0,0
							c-0.6,0.7-1.3,1.5-2.1,1.6l0,0c0.5-3-0.6-6-2.9-8l0,0c-2.5,1.3-3.6,4.3-4.9,6.9l0,0c1.1,2.7,2.2,5.3,2.2,8.4l0,0
							c0,6.7-3.4,14.2-2.6,20.1l0,0c0.3,1.8,1,4.9,1.5,7l0,0c-0.8-1.4-1.4-3-2-4.5l0,0c-2.1-4.8-0.2-14.1,0.6-20l0,0
							c-0.2-0.2,0.2-5.8-0.8-7.3l0,0c-1.8,3.5-3,7.2-3.8,11l0,0c0.1-8.1,2.4-15.2,5.1-22.5l0,0c3.3-8.9,1.8-19-1-27.8l0,0
							c1.6,1.5,2.5,4.2,3.1,6.7l0,0c0.8,3.1,1.3,6.3,1.5,9.5l0,0c0.1,3.4-0.2,6.8-0.7,10.2l0,0c0.5-2.3,2.8-0.3,3.5,0.7l0,0
							c1.3,2,2,5.8,2.6,7.6l0,0c1.1-1.8,0.8-4,0.5-6.1l0,0c1.2-0.4,1.4,1.2,1.8,2.1l0,0c0.8,2.5,1.3,5.1,1.4,7.7l0,0
							c0.3-1.5,1.2-3.3,1.7-4.9l0,0c0.3-1.3,0.3-3.1,2-2.6l0,0c-0.7,5,0.4,8.4-0.8,12.5l0,0c2.1,0.2,3.5-1.8,4.2-3l0,0
							c0.5-0.9,0.8-2.1,1.4-2.2l0,0c1.1,1.4,0.1,4.5,0,6.1l0,0c0.6-1,1.2-2.2,1.7-3.3l0,0c0.4,0,0.8,0.1,1.1,0.4l0,0
							c-0.5,3-0.4,5.1-1.7,7.2l0,0c2.4-2,3.7-6,4.4-9.9l0,0c0.3-1.5,0.2-2.5,1.1-3.5l0,0c0.6-0.1,1.1,0.2,1.4,0.7l0,0
							c-0.1,1-0.3,2.1-0.5,3.1l0,0c-0.7,2.9-2.3,5.9-1.4,9l0,0c0.3-0.9,0.2-1.7,0.5-2.4l0,0c1-2.6,3.1-3.1,4.6-4.8l0,0
							c0.5-0.6,0.5-1.4,1.2-1.8l0,0c0.6,1.6-0.9,3.8-1,5.6l0,0c2.5-2.5,4.6-9.3,2.3-13l0,0c-0.6,0.3-1.3,0.4-2,0.3l0,0
							c-2.8,1.2-5.9,1.3-9.2,0.6l0,0c-1.3-0.9-2.5-2.3-3.7-2.9l0,0c-2.1-3.3-3-6.6-5.5-9.2l0,0c-0.1,0.3-0.5,0.3-0.8,0.4l0,0
							c-2.6-2.6-4.7-5.5-6.5-8.6l0,0c-0.2,0.2-0.2,0.5-0.6,0.4l0,0c-0.4-1.2-1.4-1.8-1.8-3l0,0c1.2-3.8,2.7-7.4,3.4-11.8l0,0
							c-0.1-0.5-0.5-1.1,0-1.3l0,0c0.4-0.2,0.5,0,0.6,0.3l0,0c0.1,0.3,0.3,0.5,0.6,0.3l0,0c-0.4-1.2,0.5-2.7,0.2-3.8l0,0
							c0.3,0,0.5,0.2,0.6,0.4l0,0c0.2,0.2,0.4,0.5,0.6,0.3l0,0c0.2-1.6-0.5-2.8-0.4-4.1l0,0c0.3-0.2,0.4,0,0.5,0.3l0,0
							c0.1,0.2,0.2,0.4,0.4,0.4l0,0c1.5-2.4,0.8-6.9,2.8-8.9l0,0c0.9,0.6,0.4,1.7,1.2,2.3l0,0c0.3-3,1.3-5.9,3-8.5l0,0
							c1.7-2.6,3.2-5.2,5.9-4l0,0c0.5-0.3,1.1-0.4,1.4-1l0,0c-0.8-0.3-1.8,0-2.3-0.5l0,0c2.4-0.6,6.9-0.3,9.1,0.1l0,0
							c-1.1,1.4-4.4,0.5-5.7,1.7l0,0c1.8,1.8,4.1,1,6.1,0.9l0,0c-0.1,0.3-0.7,0.7-0.6,0.8l0,0c1.5,0.2,3-0.1,4.4-0.7l0,0
							c0.1-0.5,0.7-1.3,1.1-0.9l0,0c0.3,0.6-0.8,1-0.9,2.1l0,0c2.7-0.2,4-1.7,5.7-3.4l0,0c0.2,0.7-0.6,0.9-0.3,1.3l0,0
							c1.5,0.6,3.3,0.4,4.7-0.6l0,0c2.1-1.5,2.3-5.2,3.6-7.3l0,0c0.3,3-1.3,6.2-2.4,8.8l0,0c2.9-1.1,2.7-5.7,3.9-8.8l0,0
							c-0.3-0.2-0.5-0.5-0.6-0.7l0,0c2-1.4,4.7-2.1,5.5-5l0,0c-4.8-4.7-10.9-8-17.5-9.5l0,0c-1.4-0.3-2.8-0.3-4.3-0.2l0,0
							c-1,0.1-2.1,0.1-3.1,0l0,0c-3.2-2.2-7.4-4.2-11.3-4.5l0,0c-1.5-0.1-2.9,0.1-3.9-0.6l0,0c-1.5-1-2.1-4.6-3.6-5.9l0,0
							c-6.9-5.7-17.1-6.2-19-8.3l0,0c-3.2-3.6-4.6-11.7-5-12.3l0,0c0.3,2.2,0.7,5.7-0.6,7.2l0,0c-0.8-7.1-5.1-12.9-9.7-16.7l0,0
							c1.3,2.1,3.6,5.6,3.2,8.3l0,0c-3.1-3.8-6.1-7.5-11.2-9.5l0,0c-0.3-0.2-0.1-0.3-0.3-0.4l0,0c-3.5-1.3-7.5-3.1-11.4-4.3l0,0
							c3.6,3.8,8.5,4.7,12,7.1l0,0c-1.8-0.4-3.5-0.9-5.2-1.5l0,0c-3.2-1.2-6.1-3.1-8.6-5.6l0,0c-0.8-0.9-1.3-2.1-2.1-3l0,0
							c-0.8-1-2.1-1.8-2.3-3.4l0,0C120.5,137.4,131.8,138.6,138.8,143.5 M159.6,160.2c-0.9,1.7-1.1,4.4,0.5,5.5l0,0
							C159.5,164.2,159.6,162.1,159.6,160.2 M197.2,210.6c-1.3,0.2-2.3,0.7-4,0.5l0,0c0.6,1,2.3,0.2,3,1.1l0,0
							C195.9,211.5,196.9,211.3,197.2,210.6 M189.9,210.9c-2.8-0.3-5.6,0.2-6.6,2.5l0,0c0.1,0.3,0.6,0.2,0.8,0.3l0,0
							c-0.1-0.3-0.4-0.7-0.1-1l0,0c0.7,0.1,1.3,0.4,1.9,0.8l0,0c1.3-1.4,3-3,4.9-1.1l0,0c0.5-0.8,1.8-1,2.3-1.3l0,0
							c-1-0.4-2.1-0.4-3,0l0,0C189.9,211,190.2,210.9,189.9,210.9 M205.5,213.1c-1.3-1-3.2-0.4-4.2-1.9l0,0
							c-1.5,0.3-3.1,0.6-4.6,1.1l0,0c2.4,2.8,3.1,8.8,1.6,13.8l0,0c1.4-2.1,2.4-4.6,2.8-7.2l0,0c0.4-2.6-0.1-4.8-0.1-6.7l0,0
							c0.9,0.3,0.8,1.4,1,2.3l0,0c0.6-0.2,0.8,0.1,1.8,0.2l0,0c0.1-0.8,0.1-1.7,1-1.5l0,0c0.2,0.7,0.4,2.3-0.2,2.6l0,0
							c0.3,2,1,4.2,1,5.9l0,0C206.4,219.3,207.3,214.5,205.5,213.1 M173.3,243.1c-0.3,0.1-1.2,0.1-0.9,0.5l0,0
							c-0.2,0.1-0.4,0-0.5-0.2l0,0c-0.1-0.1-0.2-0.2-0.4-0.2l0,0c0.2,1.3,2.1,2.3,2.7,3.6l0,0c3.7,2.7,6.4,6.4,8.1,10.6l0,0
							c0.5,1.2,1.7,3.2,2.6,5.1l0,0c2.1-1.2,3.1-3.8,4.3-6l0,0c-2.7-4.4-5.8-9.3-10.8-11.4l0,0c1.1,1.4,3,2.4,3.6,4.6l0,0
							C179.8,247.7,177,244.7,173.3,243.1 M191.5,264c2.1-3.3,2.9-9.8,1.7-14l0,0c-0.6,6-3.4,10.3-5.8,13.6l0,0
							c0.8,0.5,1.8,0.7,2.7,0.8l0,0C190.5,264.3,191,264.2,191.5,264 M199.1,252.8c-1,3.8-2,7.5-4.1,9.9l0,0
							C199,262.5,199.9,256.5,199.1,252.8 M195,265.1c-0.7-0.4-1.5,0.5-2.4,0.5l0,0c0.3,0.1,0.5,0.1,0.8,0.1l0,0
							C194,265.7,194.6,265.5,195,265.1"/>
					</g>
				</g>
			</g>
		</g>
		<g id="g254">
			<g id="g256">
				<g id="g262">
					<g id="g264">
						
							<radialGradient id="path272_00000107581215962854609810000012153706567671410819_" cx="-455.3838" cy="-385.7181" r="0.9798" gradientTransform="matrix(-38.14 0 0 38.14 -17170.9473 14950.4795)" gradientUnits="userSpaceOnUse">
							<stop  offset="0" style="stop-color:#FAEA27"/>
							<stop  offset="1" style="stop-color:#EB5D1E"/>
						</radialGradient>
						<path id="path272" style="fill:url(#path272_00000107581215962854609810000012153706567671410819_);" d="M156.8,172.4
							c0.2-0.1,0.5-0.1,0.7,0l0,0c3.5,0.8,19,8.3,25.5,12.6l0,0c4.5-0.5,8.9,1.1,12.3,2.6l0,0c0.8,0.3,1.6,0.7,2.2,1.3l0,0
							c-0.1,0.5-0.7,0.5-1.2,0.4l0,0c-0.3-0.1-0.6,0-0.9,0.1l0,0c-3.1-1.9-7.2-4.1-11.7-3.7l0,0c0.4,0.2,7,4.2,3.9,5.5l0,0
							c-0.4-0.1-0.4-0.6-1-0.5l0,0c-1.7-2.3-3.8-4.1-6.3-5.3l0,0c-2.9-3.2-7.2-5.3-11.2-7.6l0,0c0.6,1,1.5,1.7,2.1,2.8l0,0
							c-0.3,1-1,1.3-1.4,2.1l0,0c0.3,0.7,0.4,1.4,0.5,2.2l0,0c1-0.3,2.9-0.9,3.7-0.5l0,0c0,0.7-1.1,0.7-1.4,0.6l0,0
							c-2,0.6-3.4,1.2-5.6,2l0,0c-0.7-1.3-2.2-2-3.9-2.5l0,0c-2.3-0.6-4.6-0.7-7-0.3l0,0c0.2-0.9,1.3-0.8,2.1-0.9l0,0
							c2.7-0.9,5.6-1.5,8.5-1.7l0,0c0.4-0.6,1.4-0.4,1.9-0.9l0,0c0.8-1.8-1.5-3.2-2-4.3l0,0c-2.8-1.4-5.7-2.6-8.7-3.6l0,0
							c-0.8-0.3-1.9-0.4-2.5-1.1l0,0C156,171.8,156.6,172,156.8,172.4 M167.8,182.6c0.1,0.2,0.2,0.5,0.1,0.7l0,0h0.6l0,0
							C168.4,182.9,168.2,182.6,167.8,182.6L167.8,182.6 M165.8,183c-0.9,0.4-2.3,0-2.9,0.7l0,0c1.8,0.2,3.5,0.9,4.9,2.1l0,0
							c0.6,0,1-0.5,1.5-0.6l0,0c0.1-0.5-0.1-1-0.3-1.4l0,0c-0.4,0.4-0.9,0.7-1.5,0.7l0,0c-0.8,0.1-1.6-0.5-1.7-1.3
							C165.8,183.1,165.8,183,165.8,183"/>
					</g>
				</g>
			</g>
		</g>
		<g id="g274">
			<g id="g276">
				<g id="g282">
					<g id="g284">
						
							<radialGradient id="path292_00000056409407031775879720000012826633835223210396_" cx="-455.3837" cy="-385.7181" r="0.9798" gradientTransform="matrix(-38.14 0 0 38.14 -17170.6484 14950.0986)" gradientUnits="userSpaceOnUse">
							<stop  offset="0" style="stop-color:#FAEA27"/>
							<stop  offset="1" style="stop-color:#EB5D1E"/>
						</radialGradient>
						<path id="path292" style="fill:url(#path292_00000056409407031775879720000012826633835223210396_);" d="M192.9,192.1
							c1.3-0.3,3.1-0.1,3.9,1.3l0,0c-1.3,1.8-3.3-0.4-4.1-1.3l0,0c-1,0.8-2.7-0.7-3.5-1.4l0,0c0.2,0,0.4,0,0.6,0l0,0
							C191.2,190.7,192.7,191.4,192.9,192.1"/>
					</g>
				</g>
			</g>
		</g>
		<g id="g294">
			<g id="g296">
				<g id="g302">
					<g id="g304">
						
							<radialGradient id="path312_00000151532202486913451950000012859235260182084786_" cx="-455.8153" cy="-386.1036" r="0.9798" gradientTransform="matrix(-36.36 0 0 36.36 -16380.1221 14280.001)" gradientUnits="userSpaceOnUse">
							<stop  offset="0" style="stop-color:#FAEA27"/>
							<stop  offset="1" style="stop-color:#EB5D1E"/>
						</radialGradient>
						<path id="path312" style="fill:url(#path312_00000151532202486913451950000012859235260182084786_);" d="M153.4,235
							c-0.3,4.6,0.3,9.3,1.6,13.8l0,0c-0.2,2,1.1,2.9,1.2,4.9l0,0c0,0.2,0.3,0.5,0.1,0.4l0,0c-2.4-3.5-3.6-8.5-4-13l0,0
							c-0.4-3.8-0.3-7.6,0.5-11.3l0,0c0.3-1.1,0.3-2.8,1.5-3.4l0,0C154.2,229.2,153.5,231.9,153.4,235"/>
					</g>
				</g>
			</g>
		</g>
		<g id="g314">
			<g id="g316">
				<g id="g322">
					<g id="g324">
						
							<radialGradient id="path332_00000080900249269893991930000011334345199414314132_" cx="-455.3847" cy="-385.7195" r="0.9798" gradientTransform="matrix(-38.14 0 0 38.14 -17172.668 14952.6592)" gradientUnits="userSpaceOnUse">
							<stop  offset="0" style="stop-color:#FAEA27"/>
							<stop  offset="1" style="stop-color:#EB5D1E"/>
						</radialGradient>
						<path id="path332" style="fill:url(#path332_00000080900249269893991930000011334345199414314132_);" d="M132.9,171.7
							c1.4,0.7,2.9,1.5,4.2,2.4l0,0c1.7,1.1,3.2,2.3,4.7,3.7l0,0c2.5,2.8,3.6,2.2,3.4,2.8l0,0c-0.4,0.4-0.8,0.6-1.3,0.6l0,0
							c-1.7,0.2-3.4-0.5-4.5-1.9l0,0c-2.4-2.8-6.7-6.2-10.3-7.5l0,0c-3.4-1.2-6.4-0.6-9.5,0l0,0c-1.9,0.4-3.8,0.6-5.6,0.7l0,0
							c3.5-1.5,7.3-2.3,11-2.2l0,0C127.8,170.1,130.5,170.6,132.9,171.7"/>
					</g>
				</g>
			</g>
		</g>
		<g id="g334">
			<g id="g336">
				<g id="g342">
					<g id="g344">
						
							<radialGradient id="path352_00000036954204228023914780000004489277097049606076_" cx="-455.3839" cy="-385.7184" r="0.9798" gradientTransform="matrix(-38.14 0 0 38.14 -17171.1777 14950.7686)" gradientUnits="userSpaceOnUse">
							<stop  offset="0" style="stop-color:#FAEA27"/>
							<stop  offset="1" style="stop-color:#EB5D1E"/>
						</radialGradient>
						<path id="path352" style="fill:url(#path352_00000036954204228023914780000004489277097049606076_);" d="M205.5,191.2
							c2.6,0.4,11,2.1,10.2,5.8l0,0c-0.2,0.9-2.3,2-3.6,1.9l0,0c-1.7-2.8-2.4-6.4-7.3-6.4l0,0c-0.4-1.7-1.6-2.5-2.6-3.6l0,0
							c0.2,0,0.2-0.2,0.3-0.3l0,0C203.3,189.5,205.2,190.1,205.5,191.2"/>
					</g>
				</g>
			</g>
		</g>
		<g id="g354">
			<g id="g356">
				<g id="g362">
					<g id="g364">
						
							<radialGradient id="path372_00000095337127637680958780000010615502818126966975_" cx="-455.3924" cy="-385.7167" r="0.9798" gradientTransform="matrix(-38.14 0 0 38.14 -17168.748 14947.6982)" gradientUnits="userSpaceOnUse">
							<stop  offset="0" style="stop-color:#FAEA27"/>
							<stop  offset="1" style="stop-color:#EB5D1E"/>
						</radialGradient>
						<path id="path372" style="fill:url(#path372_00000095337127637680958780000010615502818126966975_);" d="M202.1,195.9
							c-1.7,1.2-4.2,0-4.2-1.7l0,0c0.2-0.1,0.3-0.1,0.4-0.1l0,0C199.7,194.3,201,194.9,202.1,195.9"/>
					</g>
				</g>
			</g>
		</g>
		<g id="g374">
			<g id="g376">
				<g id="g382">
					<g id="g384">
						
							<radialGradient id="path392_00000177481064290426497290000001307749541891764907_" cx="-455.3837" cy="-385.7181" r="0.9798" gradientTransform="matrix(-38.14 0 0 38.14 -17170.7168 14950.1787)" gradientUnits="userSpaceOnUse">
							<stop  offset="0" style="stop-color:#FAEA27"/>
							<stop  offset="1" style="stop-color:#EB5D1E"/>
						</radialGradient>
						<path id="path392" style="fill:url(#path392_00000177481064290426497290000001307749541891764907_);" d="M179.6,208.5
							c-0.7,0.5-2,0.6-1.8,1.7l0,0c-1.4,0.5-1.4,1.5-1.6,2.9l0,0c-4.2,3.9-6.1,10.3-9.1,15l0,0c0.2,0,0.2-0.1,0.3-0.1l0,0
							c-0.7,0.7-1,1.7-1.7,2l0,0c2.2-6.4,4.6-12.4,8.1-17.7l0,0c0-0.3,0.1-0.6,0.1-0.8l0,0c1.4-1.4,3-2.5,4.8-3.3l0,0
							C179.1,208,179.6,208.1,179.6,208.5"/>
					</g>
				</g>
			</g>
		</g>
	</g>
</g>
<g id="Claym">
	<g id="claym">
		<g class="st22">
			<path class="st23" d="M119.8,207.4c18.6,0,28.8,11.7,28.8,18.7c0,4.6-2.5,7.4-7.3,7.4c-9.4,0-6.6-12.9-21.5-12.9
				c-10.2,0-18.6,8.9-18.6,24.4c0,13,5.1,24.4,19.2,24.4c12.8,0,12.5-13.7,20.3-13.7c4,0,7.9,2.3,7.9,6.3
				c0,10.3-12.5,20.6-28.2,20.6c-22.3,0-35.4-12.8-35.4-37.5C85,224.7,96.9,207.4,119.8,207.4z"/>
			<path class="st23" d="M158.7,215.9c0-4.9,3.2-8.2,8.1-8.2c4.9,0,8.1,3.3,8.1,8.2v51H202c4.6,0,8.4,2.4,8.4,6.9s-3.8,6.9-8.4,6.9
				h-33.8c-5.7,0-9.5-2.3-9.5-9.5V215.9z"/>
			<path class="st23" d="M235,212.7c1.4-3.7,4-5,7.9-5h3.9c3.7,0,6.9,0.9,8.7,6l19.6,54.8c0.6,1.6,1.6,4.5,1.6,6.3
				c0,4-3.5,7.2-7.6,7.2c-3.6,0-6.1-1.3-7.3-4.5l-4.2-11.9h-26.1l-4.3,11.9c-1.1,3.2-3.4,4.5-7.2,4.5c-4.5,0-7.5-2.8-7.5-7.2
				c0-1.8,1-4.7,1.6-6.3L235,212.7z M244.8,225.5h-0.2l-9.6,28.7h19L244.8,225.5z"/>
			<path class="st23" d="M296,252.7l-19.9-33.2c-0.8-1.3-1.4-2.8-1.4-4.3c0-5.6,5-7.5,8.2-7.5c3.9,0,5.6,1.6,7.3,4.8l14.1,26.2
				l14-26.2c1.9-3.6,3.7-4.8,7-4.8c3,0,8,1.9,8,7.5c0,1.5-0.6,3-1.4,4.3L312,252.7v21.1c0,4.9-3.2,8.2-8.1,8.2s-8.1-3.3-8.1-8.2
				v-21.1L296,252.7L296,252.7z"/>
			<path class="st23" d="M341.6,215.8c0-6.6,4.5-8.1,8.8-8.1h4.7c5,0,7.4,2,9.1,7.5l14.1,46h0.2l13.9-46c1.7-5.5,4.1-7.5,9.1-7.5
				h4.5c4.4,0,8.8,1.5,8.8,8.1V274c0,4.1-2,8-7.2,8s-7.2-3.9-7.2-8v-44.4h-0.2l-15.1,47.5c-1.1,3.4-3.6,4.8-6.9,4.8
				c-3.4,0-5.8-1.4-6.9-4.8l-15.1-47.5H356V274c0,4.1-2,8-7.2,8s-7.2-3.9-7.2-8L341.6,215.8L341.6,215.8z"/>
		</g>
	</g>
</g>
<g id="Layer_4">
	<g>
		<path class="st24" d="M88.7,296.1c0-7.9,4.7-13,11.9-13c4.9,0,9,2.5,10.2,6c0.2,0.5,0.3,1,0.3,1.4c0,1.5-1.1,2.3-2.5,2.3
			c-1.2,0-1.9-0.5-2.6-1.7c-1.2-2.3-2.9-3.4-5.3-3.4c-3.8,0-6.1,3.1-6.1,8.2c0,5.2,2.4,8.2,6.1,8.2c2.6,0,4.2-1.2,5.3-3.2
			c0.8-1.3,1.4-1.8,2.7-1.8c1.4,0,2.5,0.9,2.5,2.4c0,0.4-0.1,0.9-0.4,1.5c-1.4,3.4-5.5,5.8-10.2,5.8C93.4,309,88.7,304.1,88.7,296.1
			z"/>
		<path class="st24" d="M111.6,296.1c0-8,4.8-12.9,12-12.9s12,4.9,12,12.9c0,8.1-4.7,12.9-12,12.9S111.6,304.2,111.6,296.1z
			 M129.7,296.1c0-5.3-2.4-8.3-6.1-8.3c-3.7,0-6.1,3-6.1,8.3c0,5.3,2.4,8.3,6.1,8.3S129.7,301.4,129.7,296.1z"/>
		<path class="st24" d="M136.9,305.9v-19.8c0-1.8,1.1-3,2.8-3c1.7,0,2.9,1.1,2.9,3v1.7h0.1c1.3-3,3.9-4.7,7.7-4.7
			c5.5,0,8.6,3.5,8.6,9.3v13.5c0,2-1.2,3.1-2.9,3.1s-2.9-1.1-2.9-3.1v-12.3c0-3.5-1.6-5.5-5-5.5c-3.4,0-5.5,2.4-5.5,6v11.8
			c0,2-1.2,3.1-2.9,3.1S136.9,307.9,136.9,305.9z"/>
		<path class="st24" d="M160.7,304c-0.2-0.4-0.2-0.8-0.2-1.1c0-1.4,1-2.3,2.4-2.3c1,0,1.8,0.4,2.5,1.4c1.3,1.9,2.8,2.7,5.6,2.7
			c2.7,0,4.5-1.1,4.5-3c0-1.5-0.9-2.3-3.5-2.9l-4-0.9c-4.9-1.1-7.2-3.5-7.2-7.1c0-4.6,4-7.6,10.1-7.6c4.8,0,8.5,2.3,9.3,5.2
			c0.1,0.3,0.1,0.6,0.1,0.9c0,1.2-0.8,2.1-2.2,2.1c-0.8,0-1.7-0.3-2.2-1.1c-1.1-1.7-2.6-2.8-5-2.8c-2.6,0-4.3,1.2-4.3,3
			c0,1.5,1.1,2.4,3.7,3l4,0.9c5.2,1.2,7.3,3.1,7.3,6.8c0,4.8-4.3,7.9-10.6,7.9C165.6,309,161.9,307,160.7,304z"/>
		<path class="st24" d="M182.5,299.7v-13.5c0-1.9,1.2-3.1,2.9-3.1s2.9,1.1,2.9,3.1v12.3c0,3.6,1.7,5.5,5,5.5c3.4,0,5.5-2.4,5.5-6
			v-11.8c0-1.9,1.2-3.1,2.9-3.1c1.7,0,2.9,1.1,2.9,3.1V306c0,1.9-1.1,3-2.8,3c-1.7,0-2.8-1.1-2.8-3v-1.8h-0.1
			c-1.3,3-3.8,4.8-7.6,4.8C185.9,309,182.5,305.5,182.5,299.7z"/>
		<path class="st24" d="M207,305.9v-28.6c0-2,1.2-3.1,2.9-3.1s2.9,1.1,2.9,3.1v28.6c0,2-1.2,3.1-2.9,3.1S207,307.9,207,305.9z"/>
		<path class="st24" d="M217,288.2h-1.6c-1.5,0-2.3-0.9-2.3-2.3c0-1.4,0.9-2.2,2.3-2.2h1.6v-3.3c0-1.9,1.1-3,2.9-3
			c1.8,0,2.9,1.2,2.9,3v3.3h2.7c1.5,0,2.3,0.8,2.3,2.2c0,1.4-0.9,2.3-2.3,2.3h-2.7v12.9c0,1.9,0.7,2.7,2.3,2.8l0.4,0
			c1.5,0.1,2.3,0.8,2.3,2.2c0,1.7-1.5,2.6-4.2,2.6h-0.2c-4.3,0-6.5-2.2-6.5-6.4V288.2z"/>
		<path class="st24" d="M227.6,301.4c0-4.4,3.4-7.1,9.4-7.4l6.6-0.4v-1.8c0-2.6-1.8-4.1-4.6-4.1c-2.3,0-3.8,0.8-5.2,2.9
			c-0.6,0.8-1.4,1.2-2.4,1.2c-1.4,0-2.5-0.9-2.5-2.3c0-0.5,0.1-1.1,0.4-1.6c1.3-2.9,5.1-4.7,9.9-4.7c6.2,0,10.2,3.3,10.2,8.2v14.6
			c0,1.9-1.2,2.9-2.8,2.9c-1.6,0-2.7-1-2.8-2.7v-1.7h-0.1c-1.4,2.7-4.5,4.4-7.8,4.4C231.1,308.9,227.6,305.9,227.6,301.4z
			 M243.7,299.3v-1.9l-5.8,0.4c-2.8,0.2-4.4,1.5-4.4,3.4c0,2,1.7,3.3,4.2,3.3C241,304.5,243.7,302.3,243.7,299.3z"/>
		<path class="st24" d="M251.6,305.9v-19.8c0-1.8,1.1-3,2.8-3c1.7,0,2.9,1.1,2.9,3v1.7h0.1c1.3-3,3.9-4.7,7.7-4.7
			c5.5,0,8.6,3.5,8.6,9.3v13.5c0,2-1.2,3.1-2.9,3.1s-2.9-1.1-2.9-3.1v-12.3c0-3.5-1.6-5.5-5-5.5c-3.4,0-5.5,2.4-5.5,6v11.8
			c0,2-1.2,3.1-2.9,3.1S251.6,307.9,251.6,305.9z"/>
		<path class="st24" d="M277.5,288.2H276c-1.5,0-2.3-0.9-2.3-2.3c0-1.4,0.9-2.2,2.3-2.2h1.6v-3.3c0-1.9,1.1-3,2.9-3
			c1.8,0,2.9,1.2,2.9,3v3.3h2.7c1.5,0,2.3,0.8,2.3,2.2c0,1.4-0.9,2.3-2.3,2.3h-2.7v12.9c0,1.9,0.7,2.7,2.3,2.8l0.4,0
			c1.5,0.1,2.3,0.8,2.3,2.2c0,1.7-1.5,2.6-4.2,2.6h-0.2c-4.3,0-6.5-2.2-6.5-6.4V288.2z M279,318.8c0-0.3,0.1-0.7,0.2-1l1.5-4.7
			c0.5-1.3,1.1-1.9,2.4-1.9c1.3,0,2.2,0.8,2.2,1.9c0,0.5-0.1,0.9-0.4,1.4l-1.8,4.5c-0.5,1.1-1.1,1.5-2.1,1.5
			C279.8,320.6,279,319.9,279,318.8z"/>
		<path class="st24" d="M289.3,277c0-1.8,1.4-3.2,3.2-3.2c1.8,0,3.3,1.4,3.3,3.2c0,1.8-1.4,3.2-3.3,3.2
			C290.8,280.2,289.3,278.8,289.3,277z M289.7,305.9v-19.7c0-1.9,1.1-3.1,2.9-3.1s2.9,1.2,2.9,3.1v19.6c0,1.9-1.1,3.1-2.9,3.1
			S289.7,307.8,289.7,305.9z"/>
		<path class="st24" d="M304,296.1c0-7.9,4.1-12.8,10.3-12.8c3.6,0,6.4,1.9,7.7,4.6h0.1v-10.5c0-2,1.2-3.1,2.9-3.1s2.9,1.1,2.9,3.1
			v28.8c0,1.9-1.2,2.9-2.9,2.9s-3-1-3-2.9v-1.9H322c-1.2,2.9-3.9,4.8-7.7,4.8C308,308.9,304,304,304,296.1z M322.1,296.1
			c0-4.9-2.4-8-6.1-8c-3.8,0-6.1,3.1-6.1,8c0,4.9,2.3,8,6.1,8C319.7,304.1,322.1,301,322.1,296.1z"/>
		<path class="st24" d="M329.3,301.4c0-4.4,3.4-7.1,9.4-7.4l6.6-0.4v-1.8c0-2.6-1.8-4.1-4.6-4.1c-2.3,0-3.8,0.8-5.2,2.9
			c-0.6,0.8-1.4,1.2-2.4,1.2c-1.4,0-2.5-0.9-2.5-2.3c0-0.5,0.1-1.1,0.4-1.6c1.3-2.9,5.1-4.7,9.9-4.7c6.2,0,10.2,3.3,10.2,8.2v14.6
			c0,1.9-1.2,2.9-2.8,2.9c-1.6,0-2.7-1-2.8-2.7v-1.7h-0.1c-1.4,2.7-4.5,4.4-7.8,4.4C332.8,308.9,329.3,305.9,329.3,301.4z
			 M345.4,299.3v-1.9l-5.8,0.4c-2.8,0.2-4.4,1.5-4.4,3.4c0,2,1.7,3.3,4.2,3.3C342.7,304.5,345.4,302.3,345.4,299.3z"/>
		<path class="st24" d="M353.2,299.7v-13.5c0-1.9,1.2-3.1,2.9-3.1s2.9,1.1,2.9,3.1v12.3c0,3.6,1.7,5.5,5,5.5c3.4,0,5.5-2.4,5.5-6
			v-11.8c0-1.9,1.2-3.1,2.9-3.1c1.7,0,2.9,1.1,2.9,3.1V306c0,1.9-1.1,3-2.8,3c-1.7,0-2.8-1.1-2.8-3v-1.8h-0.1
			c-1.3,3-3.8,4.8-7.6,4.8C356.6,309,353.2,305.5,353.2,299.7z"/>
		<path class="st24" d="M377.6,305.9v-19.8c0-1.8,1.1-3,2.8-3c1.7,0,2.9,1.1,2.9,3v1.7h0.1c1.3-3,3.9-4.7,7.7-4.7
			c5.5,0,8.6,3.5,8.6,9.3v13.5c0,2-1.2,3.1-2.9,3.1s-2.9-1.1-2.9-3.1v-12.3c0-3.5-1.6-5.5-5-5.5c-3.4,0-5.5,2.4-5.5,6v11.8
			c0,2-1.2,3.1-2.9,3.1S377.6,307.9,377.6,305.9z"/>
		<path class="st24" d="M400.9,296.2c0-7.9,4.6-13,11.7-13c6.8,0,11.4,4.8,11.4,11.6c0,1.7-1,2.8-2.7,2.8h-14.6v0.2
			c0,4.1,2.4,6.8,6.2,6.8c2.6,0,4.3-0.9,6.2-3.3c0.6-0.7,1.1-0.9,2-0.9c1.3,0,2.3,0.8,2.3,2.2c0,0.4-0.1,1-0.4,1.5
			c-1.6,3.2-5.3,5-10.1,5C405.4,309,400.9,304.3,400.9,296.2z M418.3,293.7c-0.1-3.6-2.4-6-5.7-6s-5.7,2.4-5.9,6H418.3z"/>
	</g>
</g>
</svg>
